<?xml version="1.0" encoding="UTF-8"?>
<svg id="Layer_1" data-name="Layer 1" xmlns="http://www.w3.org/2000/svg" viewBox="0 0 289.13 195.59">
  <defs>
    <style>
      .cls-1, .cls-2 {
        fill: #fff;
      }

      .cls-2 {
        fill-rule: evenodd;
      }

      .cls-3 {
        stroke: #fff;
        stroke-width: .75px;
      }

      .cls-3, .cls-4, .cls-5 {
        fill: none;
        stroke-miterlimit: 22.93;
      }

      .cls-4 {
        stroke-width: .57px;
      }

      .cls-4, .cls-5 {
        stroke: #000;
      }

      .cls-5 {
        stroke-width: 0px;
      }
    </style>
  </defs>
  <path d="m20.76,169.94c.04.65.06,1.25.06,1.8,0,.56,0,1.08,0,1.56,0,1.72-.01,3.22-.04,4.49-.03,1.27-.09,2.34-.17,3.19.18-.04.35-.06.52-.07.17-.01.34-.02.5-.02s.33,0,.51.02c.18.01.35.04.51.07-.08-.74-.14-1.86-.18-3.35-.04-1.5-.05-3.39-.05-5.67,0-.29,0-.61.03-.94.02-.33.04-.69.06-1.08h.99c.27,0,.62.02,1.06.07.44.05.97.12,1.59.23-.02-.11-.04-.21-.05-.32-.01-.11-.02-.21-.02-.32s0-.21.02-.32c.01-.11.03-.21.05-.32-.89.05-1.71.08-2.46.11-.75.02-1.44.04-2.06.04-.52,0-1.15-.01-1.9-.04-.75-.02-1.62-.06-2.62-.11.06.21.09.41.09.6,0,.11,0,.21-.03.31-.02.1-.04.2-.06.31.61-.08,1.13-.14,1.56-.18.43-.04.77-.06,1.01-.06h1.07Z"/>
  <path d="m29.65,174.99c.56-.02,1.12-.04,1.67-.04h3.32c.55,0,1.11.01,1.67.04v1.92c0,.64,0,1.3,0,1.98,0,.67-.04,1.38-.1,2.1.18-.04.35-.06.52-.07.17-.01.34-.02.5-.02s.33,0,.51.02c.18.01.35.04.51.07-.08-.89-.14-1.83-.17-2.82-.03-.99-.04-2.05-.04-3.18s.01-2.19.04-3.18c.02-1,.08-1.94.18-2.83-.16.02-.33.04-.5.06-.17.02-.34.03-.52.03-.16,0-.33,0-.5-.03-.17-.02-.34-.04-.52-.06.07,1.09.11,2.22.11,3.4v1.57c-.56.02-1.12.04-1.66.05-.55.01-1.1.02-1.66.02s-1.12,0-1.67-.02c-.55-.01-1.11-.03-1.67-.05v-1.57c0-1.11.04-2.25.11-3.4-.16.02-.33.04-.51.06-.18.02-.35.03-.51.03-.18,0-.35,0-.52-.03-.17-.02-.34-.04-.5-.06.09.89.16,1.84.18,2.83.03,1,.04,2.06.04,3.18s-.02,2.18-.05,3.18c-.04.99-.09,1.93-.18,2.82.18-.04.35-.06.52-.07.17-.01.34-.02.5-.02s.33,0,.51.02c.18.01.35.04.51.07-.07-1.02-.11-2.38-.11-4.08v-1.92Z"/>
  <path d="m41.06,180.99c1.17-.04,2.3-.05,3.4-.05s2.13.02,3.11.05c-.04-.19-.05-.39-.05-.6s.02-.42.05-.63c-.97.2-1.94.3-2.9.3h-1.6c-.02-.72-.04-1.33-.05-1.86-.01-.52-.02-.95-.02-1.29v-1.86h1.72c.27,0,.61.01,1.02.04.41.02.9.06,1.48.11-.01-.12-.02-.23-.03-.33,0-.11,0-.21,0-.3s0-.18,0-.27c0-.09.01-.17.03-.26-.9.11-1.72.16-2.45.16h-1.78v-2.67c0-.41,0-.94.02-1.6h1.6c.53,0,1.03.02,1.51.07.48.05.94.12,1.39.23-.04-.22-.05-.43-.05-.63s.02-.4.05-.6c-.99.04-2.02.05-3.11.05s-2.18-.02-3.34-.05c.09.89.16,1.84.18,2.83.03,1,.04,2.06.04,3.18s-.02,2.18-.05,3.18c-.04.99-.09,1.93-.18,2.82"/>
  <path d="m57.02,180.99c.13-.02.25-.04.36-.06.11-.02.23-.03.36-.03.22,0,.47.03.74.09.14-.5.31-1.06.5-1.68.19-.62.41-1.29.66-2.03l1.92-5.73,1.58,4.47c.28.8.55,1.61.79,2.43.25.82.49,1.67.72,2.55.27-.06.5-.09.7-.09.13,0,.25,0,.36.03.11.02.23.04.34.06.59-2.11,1.22-4.16,1.91-6.16.69-1.99,1.42-3.95,2.19-5.86-.23.05-.5.07-.79.07s-.54-.02-.77-.07c-.26,1.68-.69,3.44-1.3,5.28l-1.5,4.52c-.54-1.51-1.07-3.08-1.59-4.7-.52-1.62-1.03-3.32-1.54-5.1-.2.05-.43.07-.69.07-.23,0-.46-.02-.69-.07-.43,1.67-.91,3.31-1.42,4.93-.51,1.62-1.06,3.25-1.66,4.88l-1.53-4.86c-.28-.91-.54-1.78-.77-2.6-.23-.82-.43-1.61-.6-2.36-.18.02-.35.04-.52.05-.17.01-.34.02-.52.02-.16,0-.33,0-.49-.02-.16-.01-.33-.03-.49-.05.81,2.31,1.52,4.46,2.14,6.46.62,1.99,1.15,3.85,1.59,5.56"/>
  <path d="m71.56,180.99c1.17-.04,2.3-.05,3.39-.05s2.13.02,3.11.05c-.04-.19-.05-.39-.05-.6s.02-.42.05-.63c-.97.2-1.94.3-2.9.3h-1.6c-.02-.72-.04-1.33-.05-1.86-.01-.52-.02-.95-.02-1.29v-1.86h1.72c.27,0,.61.01,1.02.04.41.02.9.06,1.48.11-.01-.12-.02-.23-.03-.33,0-.11,0-.21,0-.3s0-.18,0-.27c0-.09.01-.17.03-.26-.9.11-1.72.16-2.45.16h-1.78v-2.67c0-.41,0-.94.02-1.6h1.6c.53,0,1.03.02,1.51.07.48.05.94.12,1.39.23-.04-.22-.05-.43-.05-.63s.02-.4.05-.6c-.99.04-2.02.05-3.11.05s-2.18-.02-3.34-.05c.09.89.16,1.84.18,2.83.03,1,.04,2.06.04,3.18s-.02,2.18-.05,3.18c-.04.99-.09,1.93-.18,2.82"/>
  <path d="m80.41,180.99c.25-.02.48-.04.71-.05.23-.01.44-.02.64-.02.47,0,.89.01,1.26.04.37.03.7.04.99.04.73,0,1.38-.09,1.95-.26.57-.17,1.06-.41,1.46-.72.4-.31.7-.67.91-1.1.21-.43.32-.91.32-1.44,0-.96-.3-1.69-.9-2.17-.6-.48-1.52-.77-2.78-.85,2.1-.41,3.15-1.37,3.15-2.88,0-.82-.31-1.47-.91-1.94-.61-.47-1.47-.71-2.57-.71-.46,0-.93,0-1.41.03-.48.02-.98.03-1.5.03h-.65c-.21,0-.43-.01-.65-.04.06.7.1,1.46.13,2.26.03.8.04,1.67.04,2.59,0,2.44-.07,4.83-.21,7.16m1.88-6.07c.13-.01.25-.02.37-.02h.35c1.28,0,2.22.21,2.83.63.61.42.91,1.1.91,2.04,0,.88-.28,1.55-.84,2-.56.45-1.39.68-2.49.68-.35,0-.71-.02-1.07-.05-.04-.32-.06-.62-.06-.92,0-.3,0-.6,0-.91v-3.45Zm-.02-.69v-2.42c0-.43,0-.82,0-1.17,0-.35.03-.66.08-.93.56-.04.96-.05,1.18-.05.9,0,1.59.19,2.07.58.48.39.71.91.71,1.58,0,.79-.29,1.4-.86,1.81-.57.41-1.44.62-2.59.62h-.3c-.09,0-.19,0-.3-.02Z"/>
  <path d="m90.3,178.35c-.02.35-.06.68-.11.99-.05.31-.13.6-.22.87.81.68,1.88,1.02,3.2,1.02.65,0,1.24-.1,1.78-.31.54-.21,1-.49,1.38-.84.38-.36.68-.78.89-1.26.21-.48.32-1,.32-1.55,0-.48-.07-.89-.21-1.24-.14-.35-.35-.65-.63-.91-.28-.26-.63-.49-1.05-.69-.42-.21-.9-.41-1.45-.61-.41-.15-.77-.3-1.09-.45-.32-.15-.58-.31-.8-.48-.22-.18-.38-.38-.49-.61-.11-.23-.17-.5-.17-.82,0-.62.2-1.12.6-1.5.4-.38.94-.56,1.62-.56s1.21.15,1.62.46c.41.3.67.75.79,1.34h.18c.11-.6.29-1.17.56-1.72-.09-.05-.23-.11-.4-.2-.18-.09-.39-.17-.63-.26-.25-.08-.53-.15-.85-.21-.32-.06-.68-.09-1.08-.09-1.21,0-2.15.3-2.81.91-.67.6-1,1.43-1,2.47,0,.45.06.83.19,1.16.13.33.33.62.59.86.26.25.59.47.98.68.39.21.85.41,1.38.61.43.16.8.33,1.13.48.33.16.61.33.84.53.23.19.4.42.52.68.12.26.18.57.18.93,0,.72-.23,1.29-.69,1.72-.46.43-1.09.65-1.91.65-.7,0-1.31-.18-1.82-.54-.5-.36-.89-.88-1.15-1.56l-.16.04Z"/>
  <path d="m99.75,180.99c.18-.04.35-.06.53-.07.18-.01.35-.02.53-.02s.35,0,.53.02c.18.01.35.04.53.07-.08-.89-.14-1.83-.17-2.82-.03-.99-.04-2.05-.04-3.18s.01-2.19.04-3.18c.02-1,.08-1.94.18-2.83-.18.02-.35.04-.53.06-.18.02-.35.03-.53.03s-.35,0-.53-.03c-.18-.02-.35-.04-.53-.06.09.89.16,1.84.18,2.83.03,1,.04,2.06.04,3.18s-.02,2.18-.05,3.18c-.04.99-.09,1.93-.18,2.82"/>
  <path d="m107.06,169.94c.04.65.06,1.25.06,1.8,0,.56,0,1.08,0,1.56,0,1.72-.01,3.22-.04,4.49-.03,1.27-.08,2.34-.17,3.19.18-.04.35-.06.52-.07.17-.01.34-.02.5-.02s.33,0,.51.02c.18.01.35.04.51.07-.08-.74-.14-1.86-.18-3.35-.04-1.5-.05-3.39-.05-5.67,0-.29,0-.61.03-.94.02-.33.04-.69.06-1.08h.99c.27,0,.62.02,1.06.07.44.05.97.12,1.59.23-.02-.11-.04-.21-.05-.32-.01-.11-.02-.21-.02-.32s0-.21.02-.32c.01-.11.03-.21.05-.32-.89.05-1.71.08-2.46.11-.75.02-1.44.04-2.06.04-.52,0-1.15-.01-1.9-.04-.75-.02-1.62-.06-2.62-.11.06.21.09.41.09.6,0,.11,0,.21-.03.31-.02.1-.04.2-.06.31.61-.08,1.13-.14,1.56-.18.43-.04.77-.06,1.01-.06h1.07Z"/>
  <path d="m114.01,180.99c1.17-.04,2.3-.05,3.4-.05s2.13.02,3.11.05c-.04-.19-.05-.39-.05-.6s.02-.42.05-.63c-.97.2-1.94.3-2.9.3h-1.6c-.02-.72-.04-1.33-.05-1.86-.01-.52-.02-.95-.02-1.29v-1.86h1.72c.27,0,.61.01,1.02.04.41.02.9.06,1.48.11-.01-.12-.02-.23-.03-.33,0-.11,0-.21,0-.3s0-.18,0-.27c0-.09.01-.17.03-.26-.9.11-1.72.16-2.45.16h-1.78v-2.67c0-.41,0-.94.02-1.6h1.6c.53,0,1.03.02,1.51.07.48.05.94.12,1.39.23-.04-.22-.05-.43-.05-.63s.02-.4.05-.6c-.99.04-2.02.05-3.11.05s-2.18-.02-3.34-.05c.09.89.16,1.84.18,2.83.03,1,.04,2.06.04,3.18s-.02,2.18-.05,3.18c-.04.99-.09,1.93-.18,2.82"/>
  <path d="m127.68,180.99c.18-.04.35-.06.53-.07.18-.01.35-.02.53-.02s.35,0,.53.02c.18.01.35.04.53.07-.08-.89-.14-1.83-.17-2.82-.03-.99-.04-2.05-.04-3.18s.01-2.19.04-3.18c.02-1,.08-1.94.18-2.83-.18.02-.35.04-.53.06-.18.02-.35.03-.53.03s-.35,0-.53-.03c-.18-.02-.35-.04-.53-.06.09.89.16,1.84.18,2.83.03,1,.04,2.06.04,3.18s-.02,2.18-.05,3.18c-.04.99-.09,1.93-.18,2.82"/>
  <path d="m132.2,178.35c-.02.35-.06.68-.11.99-.05.31-.13.6-.22.87.81.68,1.88,1.02,3.2,1.02.65,0,1.24-.1,1.78-.31.54-.21,1-.49,1.38-.84.38-.36.68-.78.89-1.26.21-.48.32-1,.32-1.55,0-.48-.07-.89-.21-1.24-.14-.35-.35-.65-.63-.91-.28-.26-.63-.49-1.05-.69-.42-.21-.9-.41-1.45-.61-.41-.15-.77-.3-1.09-.45-.32-.15-.58-.31-.8-.48-.22-.18-.38-.38-.49-.61-.11-.23-.17-.5-.17-.82,0-.62.2-1.12.6-1.5.4-.38.94-.56,1.62-.56s1.21.15,1.62.46c.41.3.67.75.79,1.34h.18c.11-.6.29-1.17.56-1.72-.09-.05-.23-.11-.4-.2-.18-.09-.39-.17-.63-.26-.25-.08-.53-.15-.85-.21-.32-.06-.68-.09-1.08-.09-1.21,0-2.15.3-2.81.91-.67.6-1,1.43-1,2.47,0,.45.06.83.19,1.16.13.33.33.62.59.86s.59.47.98.68c.39.21.85.41,1.38.61.43.16.8.33,1.13.48.33.16.61.33.84.53.23.19.4.42.52.68.12.26.18.57.18.93,0,.72-.23,1.29-.69,1.72-.46.43-1.09.65-1.91.65-.7,0-1.31-.18-1.82-.54-.5-.36-.89-.88-1.15-1.56l-.16.04Z"/>
  <path d="m155.93,171.49c.04-.32.09-.62.17-.91.08-.29.18-.57.31-.84-.73-.32-1.44-.55-2.13-.71-.69-.16-1.39-.24-2.09-.24-1.01,0-1.91.14-2.71.43-.8.29-1.47.7-2.03,1.23-.56.53-.99,1.18-1.28,1.94-.3.76-.45,1.62-.45,2.59s.14,1.85.42,2.62c.28.77.69,1.43,1.22,1.97.53.54,1.18.95,1.94,1.24.76.29,1.62.43,2.59.43.74,0,1.45-.09,2.14-.28.69-.19,1.37-.47,2.05-.84.01-.25.03-.49.05-.73.02-.24.06-.48.12-.73l-.19-.09c-.56.6-1.16,1.05-1.78,1.35-.62.3-1.3.45-2.02.45-.68,0-1.3-.13-1.86-.38-.56-.25-1.03-.61-1.42-1.08-.39-.47-.7-1.04-.91-1.71-.22-.67-.33-1.43-.33-2.28s.1-1.6.31-2.26c.21-.66.5-1.22.88-1.68.38-.46.85-.81,1.4-1.05.55-.24,1.17-.36,1.86-.36.81,0,1.5.16,2.08.47.58.31,1.07.8,1.47,1.47h.19Z"/>
  <path d="m164.02,169.52c1.48,0,2.61.47,3.4,1.41.79.94,1.18,2.29,1.18,4.06s-.39,3.12-1.18,4.05c-.79.93-1.92,1.4-3.4,1.4s-2.62-.47-3.4-1.41c-.78-.94-1.17-2.32-1.17-4.13,0-1.71.4-3.04,1.19-3.98.79-.94,1.92-1.41,3.39-1.41m.02,11.7c1.03,0,1.95-.14,2.76-.42.81-.28,1.49-.69,2.05-1.22.56-.53.98-1.19,1.28-1.96.29-.77.44-1.65.44-2.62s-.15-1.86-.44-2.63c-.29-.77-.72-1.42-1.28-1.96-.56-.54-1.24-.95-2.05-1.23-.81-.28-1.74-.42-2.78-.42s-1.93.15-2.74.44c-.81.29-1.49.71-2.06,1.25-.56.54-.99,1.19-1.29,1.96-.3.77-.45,1.63-.45,2.59s.15,1.81.45,2.58c.3.77.73,1.42,1.29,1.96.56.54,1.25.96,2.07,1.25.81.29,1.73.44,2.75.44Z"/>
  <path d="m171.97,180.99c.13-.02.25-.04.36-.06.11-.02.23-.03.36-.03.22,0,.47.03.74.09.02-.7.06-1.38.1-2.04.04-.66.09-1.3.15-1.92l.51-4.87c.81,1.47,1.59,2.93,2.33,4.39.74,1.46,1.46,2.94,2.15,4.44.06-.02.13-.04.23-.04s.16.01.21.04c.22-.63.48-1.28.78-1.93.3-.66.64-1.35,1.01-2.08l2.52-4.94c.21,1.5.39,2.99.53,4.48.14,1.48.24,2.98.3,4.48.38-.09.71-.14,1-.14.32,0,.65.05,1,.14-.3-2.01-.58-4.02-.82-6.05-.24-2.03-.45-4.09-.62-6.19h-.67c-.83,1.75-1.65,3.4-2.45,4.97-.8,1.57-1.6,3.08-2.39,4.53-.77-1.41-1.57-2.9-2.38-4.47-.81-1.57-1.66-3.25-2.54-5.03h-.67c-.16,1.89-.39,3.85-.67,5.88-.28,2.03-.64,4.15-1.07,6.36"/>
  <path d="m188.6,180.99c.18-.04.35-.06.53-.07.18-.01.35-.02.53-.02s.35,0,.53.02c.18.01.35.04.53.07-.08-.89-.14-1.83-.17-2.82-.03-.99-.04-2.05-.04-3.18s.01-2.19.04-3.18c.02-1,.08-1.94.18-2.83-.18.02-.35.04-.53.06-.18.02-.35.03-.53.03s-.35,0-.53-.03c-.18-.02-.35-.04-.53-.06.09.89.16,1.84.18,2.83.03,1,.04,2.06.04,3.18s-.02,2.18-.05,3.18c-.04.99-.09,1.93-.18,2.82"/>
  <path d="m193.4,181.01c.13-.02.25-.04.36-.06.11-.02.23-.03.36-.03.22,0,.47.03.74.09-.08-.66-.14-1.34-.18-2.05-.04-.71-.05-1.46-.05-2.26v-4.78l5.1,5.44c.61.65,1.2,1.28,1.76,1.91.56.63,1.09,1.28,1.58,1.94h.58c-.04-1.24-.05-2.13-.05-2.66,0-2.62.03-4.71.08-6.3.05-1.58.13-2.67.22-3.27-.21.04-.44.05-.69.05s-.47-.02-.72-.05c.14,1.64.21,3.05.21,4.22v4.8c-1.42-1.48-2.83-2.98-4.23-4.51-1.4-1.53-2.8-3.11-4.2-4.74h-.63c.04.99.05,1.88.05,2.67,0,2.38-.03,4.37-.08,5.95s-.13,2.8-.22,3.63"/>
  <path d="m217.32,180.53c-.02-.41-.04-.82-.06-1.23-.02-.41-.03-.82-.03-1.23s0-.83.03-1.25c.02-.42.04-.85.06-1.28-.35.07-.7.11-1.06.11-.16,0-.32,0-.47-.03-.15-.02-.3-.04-.47-.06.05.42.08.84.1,1.27.02.42.03.84.03,1.25,0,.57-.02,1.15-.05,1.72-.9.42-1.82.63-2.76.63-.76,0-1.44-.13-2.04-.38-.6-.25-1.1-.62-1.51-1.09-.41-.47-.73-1.06-.95-1.74-.22-.69-.33-1.47-.33-2.35,0-.82.11-1.56.34-2.23.23-.66.55-1.23.97-1.7.42-.47.91-.83,1.5-1.08.58-.25,1.22-.38,1.93-.38.88,0,1.64.17,2.27.5.63.33,1.17.83,1.62,1.49h.28c.01-.6.16-1.16.46-1.67-.61-.34-1.29-.6-2.04-.78-.75-.18-1.57-.27-2.46-.27-1.04,0-1.99.15-2.83.44-.84.29-1.56.71-2.15,1.25-.59.54-1.05,1.19-1.36,1.96-.32.77-.48,1.62-.48,2.56,0,.99.15,1.87.45,2.65.3.78.73,1.44,1.29,1.98.56.54,1.26.95,2.08,1.23.83.28,1.77.42,2.82.42,1.52,0,3.14-.23,4.84-.7"/>
  <path d="m223.89,178.35c-.02.35-.06.68-.11.99-.05.31-.13.6-.22.87.81.68,1.88,1.02,3.2,1.02.65,0,1.24-.1,1.78-.31.54-.21,1-.49,1.38-.84.38-.36.68-.78.89-1.26.21-.48.32-1,.32-1.55,0-.48-.07-.89-.21-1.24-.14-.35-.35-.65-.63-.91-.28-.26-.63-.49-1.05-.69-.42-.21-.9-.41-1.45-.61-.41-.15-.77-.3-1.09-.45-.32-.15-.58-.31-.8-.48-.22-.18-.38-.38-.49-.61-.11-.23-.17-.5-.17-.82,0-.62.2-1.12.6-1.5.4-.38.94-.56,1.62-.56s1.21.15,1.62.46c.41.3.67.75.79,1.34h.18c.11-.6.29-1.17.56-1.72-.09-.05-.23-.11-.4-.2-.18-.09-.39-.17-.63-.26-.25-.08-.53-.15-.85-.21-.32-.06-.68-.09-1.08-.09-1.21,0-2.15.3-2.81.91-.67.6-1,1.43-1,2.47,0,.45.06.83.19,1.16.13.33.33.62.59.86.26.25.59.47.98.68.39.21.85.41,1.38.61.43.16.8.33,1.13.48.33.16.61.33.84.53.23.19.4.42.52.68.12.26.18.57.18.93,0,.72-.23,1.29-.69,1.72-.46.43-1.09.65-1.91.65-.7,0-1.31-.18-1.82-.54-.5-.36-.89-.88-1.15-1.56l-.16.04Z"/>
  <path d="m239.12,169.52c1.48,0,2.61.47,3.4,1.41.79.94,1.18,2.29,1.18,4.06s-.39,3.12-1.18,4.05c-.79.93-1.92,1.4-3.4,1.4s-2.62-.47-3.4-1.41c-.78-.94-1.17-2.32-1.17-4.13,0-1.71.4-3.04,1.19-3.98.79-.94,1.92-1.41,3.39-1.41m.02,11.7c1.03,0,1.95-.14,2.76-.42.81-.28,1.49-.69,2.05-1.22.56-.53.98-1.19,1.28-1.96.29-.77.44-1.65.44-2.62s-.15-1.86-.44-2.63-.72-1.42-1.28-1.96c-.56-.54-1.24-.95-2.05-1.23-.81-.28-1.74-.42-2.78-.42s-1.93.15-2.74.44c-.81.29-1.5.71-2.06,1.25-.56.54-.99,1.19-1.29,1.96-.3.77-.45,1.63-.45,2.59s.15,1.81.45,2.58c.3.77.73,1.42,1.29,1.96.56.54,1.25.96,2.07,1.25.81.29,1.73.44,2.75.44Z"/>
  <path d="m253.56,169.52c1.48,0,2.61.47,3.4,1.41.79.94,1.18,2.29,1.18,4.06s-.39,3.12-1.18,4.05c-.79.93-1.92,1.4-3.4,1.4s-2.62-.47-3.4-1.41c-.78-.94-1.17-2.32-1.17-4.13,0-1.71.4-3.04,1.19-3.98.79-.94,1.92-1.41,3.39-1.41m.02,11.7c1.03,0,1.95-.14,2.76-.42.81-.28,1.49-.69,2.05-1.22.56-.53.98-1.19,1.28-1.96.29-.77.44-1.65.44-2.62s-.15-1.86-.44-2.63c-.29-.77-.72-1.42-1.28-1.96-.56-.54-1.24-.95-2.05-1.23-.81-.28-1.74-.42-2.78-.42s-1.93.15-2.74.44c-.81.29-1.5.71-2.06,1.25-.56.54-.99,1.19-1.29,1.96-.3.77-.45,1.63-.45,2.59s.15,1.81.45,2.58c.3.77.73,1.42,1.29,1.96.56.54,1.25.96,2.07,1.25.82.29,1.73.44,2.75.44Z"/>
  <path d="m262.06,181.01c.13-.02.25-.04.36-.06.11-.02.23-.03.36-.03.22,0,.47.03.74.09-.08-.66-.14-1.34-.18-2.05-.04-.71-.05-1.46-.05-2.26v-4.78l5.1,5.44c.61.65,1.2,1.28,1.76,1.91.56.63,1.09,1.28,1.58,1.94h.58c-.04-1.24-.05-2.13-.05-2.66,0-2.62.03-4.71.08-6.3.05-1.58.13-2.67.22-3.27-.21.04-.44.05-.69.05s-.48-.02-.72-.05c.14,1.64.21,3.05.21,4.22v4.8c-1.42-1.48-2.83-2.98-4.23-4.51-1.4-1.53-2.8-3.11-4.2-4.74h-.63c.04.99.05,1.88.05,2.67,0,2.38-.03,4.37-.08,5.95-.05,1.59-.13,2.8-.22,3.63"/>
  <path class="cls-5" d="m20.76,169.94c.04.65.06,1.25.06,1.8,0,.56,0,1.08,0,1.56,0,1.72-.01,3.22-.04,4.49-.03,1.27-.09,2.34-.17,3.19.18-.04.35-.06.52-.07.17-.01.34-.02.5-.02s.33,0,.51.02c.18.01.35.04.51.07-.08-.74-.14-1.86-.18-3.35-.04-1.5-.05-3.39-.05-5.67,0-.29,0-.61.03-.94.02-.33.04-.69.06-1.08h.99c.27,0,.62.02,1.06.07.44.05.97.12,1.59.23-.02-.11-.04-.21-.05-.32-.01-.11-.02-.21-.02-.32s0-.21.02-.32c.01-.11.03-.21.05-.32-.89.05-1.71.08-2.46.11-.75.02-1.44.04-2.06.04-.52,0-1.15-.01-1.9-.04-.75-.02-1.62-.06-2.62-.11.06.21.09.41.09.6,0,.11,0,.21-.03.31-.02.1-.04.2-.06.31.61-.08,1.13-.14,1.56-.18.43-.04.77-.06,1.01-.06h1.07Z"/>
  <path class="cls-5" d="m29.65,174.99c.56-.02,1.12-.04,1.67-.04h3.32c.55,0,1.11.01,1.67.04v1.92c0,.64,0,1.3,0,1.98,0,.67-.04,1.38-.1,2.1.18-.04.35-.06.52-.07.17-.01.34-.02.5-.02s.33,0,.51.02c.18.01.35.04.51.07-.08-.89-.14-1.83-.17-2.82-.03-.99-.04-2.05-.04-3.18s.01-2.19.04-3.18c.02-1,.08-1.94.18-2.83-.16.02-.33.04-.5.06-.17.02-.34.03-.52.03-.16,0-.33,0-.5-.03-.17-.02-.34-.04-.52-.06.07,1.09.11,2.22.11,3.4v1.57c-.56.02-1.12.04-1.66.05-.55.01-1.1.02-1.66.02s-1.12,0-1.67-.02c-.55-.01-1.11-.03-1.67-.05v-1.57c0-1.11.04-2.25.11-3.4-.16.02-.33.04-.51.06-.18.02-.35.03-.51.03-.18,0-.35,0-.52-.03-.17-.02-.34-.04-.5-.06.09.89.16,1.84.18,2.83.03,1,.04,2.06.04,3.18s-.02,2.18-.05,3.18c-.04.99-.09,1.93-.18,2.82.18-.04.35-.06.52-.07.17-.01.34-.02.5-.02s.33,0,.51.02c.18.01.35.04.51.07-.07-1.02-.11-2.38-.11-4.08v-1.92Z"/>
  <path class="cls-5" d="m41.06,180.99c1.17-.04,2.3-.05,3.4-.05s2.13.02,3.11.05c-.04-.19-.05-.39-.05-.6s.02-.42.05-.63c-.97.2-1.94.3-2.9.3h-1.6c-.02-.72-.04-1.33-.05-1.86-.01-.52-.02-.95-.02-1.29v-1.86h1.72c.27,0,.61.01,1.02.04.41.02.9.06,1.48.11-.01-.12-.02-.23-.03-.33,0-.11,0-.21,0-.3s0-.18,0-.27c0-.09.01-.17.03-.26-.9.11-1.72.16-2.45.16h-1.78v-2.67c0-.41,0-.94.02-1.6h1.6c.53,0,1.03.02,1.51.07.48.05.94.12,1.39.23-.04-.22-.05-.43-.05-.63s.02-.4.05-.6c-.99.04-2.02.05-3.11.05s-2.18-.02-3.34-.05c.09.89.16,1.84.18,2.83.03,1,.04,2.06.04,3.18s-.02,2.18-.05,3.18c-.04.99-.09,1.93-.18,2.82Z"/>
  <path class="cls-5" d="m57.02,180.99c.13-.02.25-.04.36-.06.11-.02.23-.03.36-.03.22,0,.47.03.74.09.14-.5.31-1.06.5-1.68.19-.62.41-1.29.66-2.03l1.92-5.73,1.58,4.47c.28.8.55,1.61.79,2.43.25.82.49,1.67.72,2.55.27-.06.5-.09.7-.09.13,0,.25,0,.36.03.11.02.23.04.34.06.59-2.11,1.22-4.16,1.91-6.16.69-1.99,1.42-3.95,2.19-5.86-.23.05-.5.07-.79.07s-.54-.02-.77-.07c-.26,1.68-.69,3.44-1.3,5.28l-1.5,4.52c-.54-1.51-1.07-3.08-1.59-4.7-.52-1.62-1.03-3.32-1.54-5.1-.2.05-.43.07-.69.07-.23,0-.46-.02-.69-.07-.43,1.67-.91,3.31-1.42,4.93-.51,1.62-1.06,3.25-1.66,4.88l-1.53-4.86c-.28-.91-.54-1.78-.77-2.6-.23-.82-.43-1.61-.6-2.36-.18.02-.35.04-.52.05-.17.01-.34.02-.52.02-.16,0-.33,0-.49-.02-.16-.01-.33-.03-.49-.05.81,2.31,1.52,4.46,2.14,6.46.62,1.99,1.15,3.85,1.59,5.56Z"/>
  <path class="cls-5" d="m71.56,180.99c1.17-.04,2.3-.05,3.39-.05s2.13.02,3.11.05c-.04-.19-.05-.39-.05-.6s.02-.42.05-.63c-.97.2-1.94.3-2.9.3h-1.6c-.02-.72-.04-1.33-.05-1.86-.01-.52-.02-.95-.02-1.29v-1.86h1.72c.27,0,.61.01,1.02.04.41.02.9.06,1.48.11-.01-.12-.02-.23-.03-.33,0-.11,0-.21,0-.3s0-.18,0-.27c0-.09.01-.17.03-.26-.9.11-1.72.16-2.45.16h-1.78v-2.67c0-.41,0-.94.02-1.6h1.6c.53,0,1.03.02,1.51.07.48.05.94.12,1.39.23-.04-.22-.05-.43-.05-.63s.02-.4.05-.6c-.99.04-2.02.05-3.11.05s-2.18-.02-3.34-.05c.09.89.16,1.84.18,2.83.03,1,.04,2.06.04,3.18s-.02,2.18-.05,3.18c-.04.99-.09,1.93-.18,2.82Z"/>
  <path class="cls-5" d="m80.41,180.99c.25-.02.48-.04.71-.05.23-.01.44-.02.64-.02.47,0,.89.01,1.26.04.37.03.7.04.99.04.73,0,1.38-.09,1.95-.26.57-.17,1.06-.41,1.46-.72.4-.31.7-.67.91-1.1.21-.43.32-.91.32-1.44,0-.96-.3-1.69-.9-2.17-.6-.48-1.52-.77-2.78-.85,2.1-.41,3.15-1.37,3.15-2.88,0-.82-.31-1.47-.91-1.94-.61-.47-1.47-.71-2.57-.71-.46,0-.93,0-1.41.03-.48.02-.98.03-1.5.03h-.65c-.21,0-.43-.01-.65-.04.06.7.1,1.46.13,2.26.03.8.04,1.67.04,2.59,0,2.44-.07,4.83-.21,7.16Zm1.88-6.07c.13-.01.25-.02.37-.02h.35c1.28,0,2.22.21,2.83.63.61.42.91,1.1.91,2.04,0,.88-.28,1.55-.84,2-.56.45-1.39.68-2.49.68-.35,0-.71-.02-1.07-.05-.04-.32-.06-.62-.06-.92,0-.3,0-.6,0-.91v-3.45Zm-.02-.69v-2.42c0-.43,0-.82,0-1.17,0-.35.03-.66.08-.93.56-.04.96-.05,1.18-.05.9,0,1.59.19,2.07.58.48.39.71.91.71,1.58,0,.79-.29,1.4-.86,1.81-.57.41-1.44.62-2.59.62h-.3c-.09,0-.19,0-.3-.02Z"/>
  <path class="cls-5" d="m90.3,178.35c-.02.35-.06.68-.11.99-.05.31-.13.6-.22.87.81.68,1.88,1.02,3.2,1.02.65,0,1.24-.1,1.78-.31.54-.21,1-.49,1.38-.84.38-.36.68-.78.89-1.26.21-.48.32-1,.32-1.55,0-.48-.07-.89-.21-1.24-.14-.35-.35-.65-.63-.91-.28-.26-.63-.49-1.05-.69-.42-.21-.9-.41-1.45-.61-.41-.15-.77-.3-1.09-.45-.32-.15-.58-.31-.8-.48-.22-.18-.38-.38-.49-.61-.11-.23-.17-.5-.17-.82,0-.62.2-1.12.6-1.5.4-.38.94-.56,1.62-.56s1.21.15,1.62.46c.41.3.67.75.79,1.34h.18c.11-.6.29-1.17.56-1.72-.09-.05-.23-.11-.4-.2-.18-.09-.39-.17-.63-.26-.25-.08-.53-.15-.85-.21-.32-.06-.68-.09-1.08-.09-1.21,0-2.15.3-2.81.91-.67.6-1,1.43-1,2.47,0,.45.06.83.19,1.16.13.33.33.62.59.86.26.25.59.47.98.68.39.21.85.41,1.38.61.43.16.8.33,1.13.48.33.16.61.33.84.53.23.19.4.42.52.68.12.26.18.57.18.93,0,.72-.23,1.29-.69,1.72-.46.43-1.09.65-1.91.65-.7,0-1.31-.18-1.82-.54-.5-.36-.89-.88-1.15-1.56l-.16.04Z"/>
  <path class="cls-5" d="m99.75,180.99c.18-.04.35-.06.53-.07.18-.01.35-.02.53-.02s.35,0,.53.02c.18.01.35.04.53.07-.08-.89-.14-1.83-.17-2.82-.03-.99-.04-2.05-.04-3.18s.01-2.19.04-3.18c.02-1,.08-1.94.18-2.83-.18.02-.35.04-.53.06-.18.02-.35.03-.53.03s-.35,0-.53-.03c-.18-.02-.35-.04-.53-.06.09.89.16,1.84.18,2.83.03,1,.04,2.06.04,3.18s-.02,2.18-.05,3.18c-.04.99-.09,1.93-.18,2.82Z"/>
  <path class="cls-5" d="m107.06,169.94c.04.65.06,1.25.06,1.8,0,.56,0,1.08,0,1.56,0,1.72-.01,3.22-.04,4.49-.03,1.27-.08,2.34-.17,3.19.18-.04.35-.06.52-.07.17-.01.34-.02.5-.02s.33,0,.51.02c.18.01.35.04.51.07-.08-.74-.14-1.86-.18-3.35-.04-1.5-.05-3.39-.05-5.67,0-.29,0-.61.03-.94.02-.33.04-.69.06-1.08h.99c.27,0,.62.02,1.06.07.44.05.97.12,1.59.23-.02-.11-.04-.21-.05-.32-.01-.11-.02-.21-.02-.32s0-.21.02-.32c.01-.11.03-.21.05-.32-.89.05-1.71.08-2.46.11-.75.02-1.44.04-2.06.04-.52,0-1.15-.01-1.9-.04-.75-.02-1.62-.06-2.62-.11.06.21.09.41.09.6,0,.11,0,.21-.03.31-.02.1-.04.2-.06.31.61-.08,1.13-.14,1.56-.18.43-.04.77-.06,1.01-.06h1.07Z"/>
  <path class="cls-5" d="m114.01,180.99c1.17-.04,2.3-.05,3.4-.05s2.13.02,3.11.05c-.04-.19-.05-.39-.05-.6s.02-.42.05-.63c-.97.2-1.94.3-2.9.3h-1.6c-.02-.72-.04-1.33-.05-1.86-.01-.52-.02-.95-.02-1.29v-1.86h1.72c.27,0,.61.01,1.02.04.41.02.9.06,1.48.11-.01-.12-.02-.23-.03-.33,0-.11,0-.21,0-.3s0-.18,0-.27c0-.09.01-.17.03-.26-.9.11-1.72.16-2.45.16h-1.78v-2.67c0-.41,0-.94.02-1.6h1.6c.53,0,1.03.02,1.51.07.48.05.94.12,1.39.23-.04-.22-.05-.43-.05-.63s.02-.4.05-.6c-.99.04-2.02.05-3.11.05s-2.18-.02-3.34-.05c.09.89.16,1.84.18,2.83.03,1,.04,2.06.04,3.18s-.02,2.18-.05,3.18c-.04.99-.09,1.93-.18,2.82Z"/>
  <path class="cls-5" d="m127.68,180.99c.18-.04.35-.06.53-.07.18-.01.35-.02.53-.02s.35,0,.53.02c.18.01.35.04.53.07-.08-.89-.14-1.83-.17-2.82-.03-.99-.04-2.05-.04-3.18s.01-2.19.04-3.18c.02-1,.08-1.94.18-2.83-.18.02-.35.04-.53.06-.18.02-.35.03-.53.03s-.35,0-.53-.03c-.18-.02-.35-.04-.53-.06.09.89.16,1.84.18,2.83.03,1,.04,2.06.04,3.18s-.02,2.18-.05,3.18c-.04.99-.09,1.93-.18,2.82Z"/>
  <path class="cls-5" d="m132.2,178.35c-.02.35-.06.68-.11.99-.05.31-.13.6-.22.87.81.68,1.88,1.02,3.2,1.02.65,0,1.24-.1,1.78-.31.54-.21,1-.49,1.38-.84.38-.36.68-.78.89-1.26.21-.48.32-1,.32-1.55,0-.48-.07-.89-.21-1.24-.14-.35-.35-.65-.63-.91-.28-.26-.63-.49-1.05-.69-.42-.21-.9-.41-1.45-.61-.41-.15-.77-.3-1.09-.45-.32-.15-.58-.31-.8-.48-.22-.18-.38-.38-.49-.61-.11-.23-.17-.5-.17-.82,0-.62.2-1.12.6-1.5.4-.38.94-.56,1.62-.56s1.21.15,1.62.46c.41.3.67.75.79,1.34h.18c.11-.6.29-1.17.56-1.72-.09-.05-.23-.11-.4-.2-.18-.09-.39-.17-.63-.26-.25-.08-.53-.15-.85-.21-.32-.06-.68-.09-1.08-.09-1.21,0-2.15.3-2.81.91-.67.6-1,1.43-1,2.47,0,.45.06.83.19,1.16.13.33.33.62.59.86s.59.47.98.68c.39.21.85.41,1.38.61.43.16.8.33,1.13.48.33.16.61.33.84.53.23.19.4.42.52.68.12.26.18.57.18.93,0,.72-.23,1.29-.69,1.72-.46.43-1.09.65-1.91.65-.7,0-1.31-.18-1.82-.54-.5-.36-.89-.88-1.15-1.56l-.16.04Z"/>
  <path class="cls-5" d="m155.93,171.49c.04-.32.09-.62.17-.91.08-.29.18-.57.31-.84-.73-.32-1.44-.55-2.13-.71-.69-.16-1.39-.24-2.09-.24-1.01,0-1.91.14-2.71.43-.8.29-1.47.7-2.03,1.23-.56.53-.99,1.18-1.28,1.94-.3.76-.45,1.62-.45,2.59s.14,1.85.42,2.62c.28.77.69,1.43,1.22,1.97.53.54,1.18.95,1.94,1.24.76.29,1.62.43,2.59.43.74,0,1.45-.09,2.14-.28.69-.19,1.37-.47,2.05-.84.01-.25.03-.49.05-.73.02-.24.06-.48.12-.73l-.19-.09c-.56.6-1.16,1.05-1.78,1.35-.62.3-1.3.45-2.02.45-.68,0-1.3-.13-1.86-.38-.56-.25-1.03-.61-1.42-1.08-.39-.47-.7-1.04-.91-1.71-.22-.67-.33-1.43-.33-2.28s.1-1.6.31-2.26c.21-.66.5-1.22.88-1.68.38-.46.85-.81,1.4-1.05.55-.24,1.17-.36,1.86-.36.81,0,1.5.16,2.08.47.58.31,1.07.8,1.47,1.47h.19Z"/>
  <path class="cls-5" d="m164.02,169.52c1.48,0,2.61.47,3.4,1.41.79.94,1.18,2.29,1.18,4.06s-.39,3.12-1.18,4.05c-.79.93-1.92,1.4-3.4,1.4s-2.62-.47-3.4-1.41c-.78-.94-1.17-2.32-1.17-4.13,0-1.71.4-3.04,1.19-3.98.79-.94,1.92-1.41,3.39-1.41Zm.02,11.7c1.03,0,1.95-.14,2.76-.42.81-.28,1.49-.69,2.05-1.22.56-.53.98-1.19,1.28-1.96.29-.77.44-1.65.44-2.62s-.15-1.86-.44-2.63c-.29-.77-.72-1.42-1.28-1.96-.56-.54-1.24-.95-2.05-1.23-.81-.28-1.74-.42-2.78-.42s-1.93.15-2.74.44c-.81.29-1.49.71-2.06,1.25-.56.54-.99,1.19-1.29,1.96-.3.77-.45,1.63-.45,2.59s.15,1.81.45,2.58c.3.77.73,1.42,1.29,1.96.56.54,1.25.96,2.07,1.25.81.29,1.73.44,2.75.44Z"/>
  <path class="cls-5" d="m171.97,180.99c.13-.02.25-.04.36-.06.11-.02.23-.03.36-.03.22,0,.47.03.74.09.02-.7.06-1.38.1-2.04.04-.66.09-1.3.15-1.92l.51-4.87c.81,1.47,1.59,2.93,2.33,4.39.74,1.46,1.46,2.94,2.15,4.44.06-.02.13-.04.23-.04s.16.01.21.04c.22-.63.48-1.28.78-1.93.3-.66.64-1.35,1.01-2.08l2.52-4.94c.21,1.5.39,2.99.53,4.48.14,1.48.24,2.98.3,4.48.38-.09.71-.14,1-.14.32,0,.65.05,1,.14-.3-2.01-.58-4.02-.82-6.05-.24-2.03-.45-4.09-.62-6.19h-.67c-.83,1.75-1.65,3.4-2.45,4.97-.8,1.57-1.6,3.08-2.39,4.53-.77-1.41-1.57-2.9-2.38-4.47-.81-1.57-1.66-3.25-2.54-5.03h-.67c-.16,1.89-.39,3.85-.67,5.88-.28,2.03-.64,4.15-1.07,6.36Z"/>
  <path class="cls-5" d="m188.6,180.99c.18-.04.35-.06.53-.07.18-.01.35-.02.53-.02s.35,0,.53.02c.18.01.35.04.53.07-.08-.89-.14-1.83-.17-2.82-.03-.99-.04-2.05-.04-3.18s.01-2.19.04-3.18c.02-1,.08-1.94.18-2.83-.18.02-.35.04-.53.06-.18.02-.35.03-.53.03s-.35,0-.53-.03c-.18-.02-.35-.04-.53-.06.09.89.16,1.84.18,2.83.03,1,.04,2.06.04,3.18s-.02,2.18-.05,3.18c-.04.99-.09,1.93-.18,2.82Z"/>
  <path class="cls-5" d="m193.4,181.01c.13-.02.25-.04.36-.06.11-.02.23-.03.36-.03.22,0,.47.03.74.09-.08-.66-.14-1.34-.18-2.05-.04-.71-.05-1.46-.05-2.26v-4.78l5.1,5.44c.61.65,1.2,1.28,1.76,1.91.56.63,1.09,1.28,1.58,1.94h.58c-.04-1.24-.05-2.13-.05-2.66,0-2.62.03-4.71.08-6.3.05-1.58.13-2.67.22-3.27-.21.04-.44.05-.69.05s-.47-.02-.72-.05c.14,1.64.21,3.05.21,4.22v4.8c-1.42-1.48-2.83-2.98-4.23-4.51-1.4-1.53-2.8-3.11-4.2-4.74h-.63c.04.99.05,1.88.05,2.67,0,2.38-.03,4.37-.08,5.95s-.13,2.8-.22,3.63Z"/>
  <path class="cls-5" d="m217.32,180.53c-.02-.41-.04-.82-.06-1.23-.02-.41-.03-.82-.03-1.23s0-.83.03-1.25c.02-.42.04-.85.06-1.28-.35.07-.7.11-1.06.11-.16,0-.32,0-.47-.03-.15-.02-.3-.04-.47-.06.05.42.08.84.1,1.27.02.42.03.84.03,1.25,0,.57-.02,1.15-.05,1.72-.9.42-1.82.63-2.76.63-.76,0-1.44-.13-2.04-.38-.6-.25-1.1-.62-1.51-1.09-.41-.47-.73-1.06-.95-1.74-.22-.69-.33-1.47-.33-2.35,0-.82.11-1.56.34-2.23.23-.66.55-1.23.97-1.7.42-.47.91-.83,1.5-1.08.58-.25,1.22-.38,1.93-.38.88,0,1.64.17,2.27.5.63.33,1.17.83,1.62,1.49h.28c.01-.6.16-1.16.46-1.67-.61-.34-1.29-.6-2.04-.78-.75-.18-1.57-.27-2.46-.27-1.04,0-1.99.15-2.83.44-.84.29-1.56.71-2.15,1.25-.59.54-1.05,1.19-1.36,1.96-.32.77-.48,1.62-.48,2.56,0,.99.15,1.87.45,2.65.3.78.73,1.44,1.29,1.98.56.54,1.26.95,2.08,1.23.83.28,1.77.42,2.82.42,1.52,0,3.14-.23,4.84-.7Z"/>
  <path class="cls-5" d="m223.89,178.35c-.02.35-.06.68-.11.99-.05.31-.13.6-.22.87.81.68,1.88,1.02,3.2,1.02.65,0,1.24-.1,1.78-.31.54-.21,1-.49,1.38-.84.38-.36.68-.78.89-1.26.21-.48.32-1,.32-1.55,0-.48-.07-.89-.21-1.24-.14-.35-.35-.65-.63-.91-.28-.26-.63-.49-1.05-.69-.42-.21-.9-.41-1.45-.61-.41-.15-.77-.3-1.09-.45-.32-.15-.58-.31-.8-.48-.22-.18-.38-.38-.49-.61-.11-.23-.17-.5-.17-.82,0-.62.2-1.12.6-1.5.4-.38.94-.56,1.62-.56s1.21.15,1.62.46c.41.3.67.75.79,1.34h.18c.11-.6.29-1.17.56-1.72-.09-.05-.23-.11-.4-.2-.18-.09-.39-.17-.63-.26-.25-.08-.53-.15-.85-.21-.32-.06-.68-.09-1.08-.09-1.21,0-2.15.3-2.81.91-.67.6-1,1.43-1,2.47,0,.45.06.83.19,1.16.13.33.33.62.59.86.26.25.59.47.98.68.39.21.85.41,1.38.61.43.16.8.33,1.13.48.33.16.61.33.84.53.23.19.4.42.52.68.12.26.18.57.18.93,0,.72-.23,1.29-.69,1.72-.46.43-1.09.65-1.91.65-.7,0-1.31-.18-1.82-.54-.5-.36-.89-.88-1.15-1.56l-.16.04Z"/>
  <path class="cls-5" d="m239.12,169.52c1.48,0,2.61.47,3.4,1.41.79.94,1.18,2.29,1.18,4.06s-.39,3.12-1.18,4.05c-.79.93-1.92,1.4-3.4,1.4s-2.62-.47-3.4-1.41c-.78-.94-1.17-2.32-1.17-4.13,0-1.71.4-3.04,1.19-3.98.79-.94,1.92-1.41,3.39-1.41Zm.02,11.7c1.03,0,1.95-.14,2.76-.42.81-.28,1.49-.69,2.05-1.22.56-.53.98-1.19,1.28-1.96.29-.77.44-1.65.44-2.62s-.15-1.86-.44-2.63-.72-1.42-1.28-1.96c-.56-.54-1.24-.95-2.05-1.23-.81-.28-1.74-.42-2.78-.42s-1.93.15-2.74.44c-.81.29-1.5.71-2.06,1.25-.56.54-.99,1.19-1.29,1.96-.3.77-.45,1.63-.45,2.59s.15,1.81.45,2.58c.3.77.73,1.42,1.29,1.96.56.54,1.25.96,2.07,1.25.81.29,1.73.44,2.75.44Z"/>
  <path class="cls-5" d="m253.56,169.52c1.48,0,2.61.47,3.4,1.41.79.94,1.18,2.29,1.18,4.06s-.39,3.12-1.18,4.05c-.79.93-1.92,1.4-3.4,1.4s-2.62-.47-3.4-1.41c-.78-.94-1.17-2.32-1.17-4.13,0-1.71.4-3.04,1.19-3.98.79-.94,1.92-1.41,3.39-1.41Zm.02,11.7c1.03,0,1.95-.14,2.76-.42.81-.28,1.49-.69,2.05-1.22.56-.53.98-1.19,1.28-1.96.29-.77.44-1.65.44-2.62s-.15-1.86-.44-2.63c-.29-.77-.72-1.42-1.28-1.96-.56-.54-1.24-.95-2.05-1.23-.81-.28-1.74-.42-2.78-.42s-1.93.15-2.74.44c-.81.29-1.5.71-2.06,1.25-.56.54-.99,1.19-1.29,1.96-.3.77-.45,1.63-.45,2.59s.15,1.81.45,2.58c.3.77.73,1.42,1.29,1.96.56.54,1.25.96,2.07,1.25.82.29,1.73.44,2.75.44Z"/>
  <path class="cls-5" d="m262.06,181.01c.13-.02.25-.04.36-.06.11-.02.23-.03.36-.03.22,0,.47.03.74.09-.08-.66-.14-1.34-.18-2.05-.04-.71-.05-1.46-.05-2.26v-4.78l5.1,5.44c.61.65,1.2,1.28,1.76,1.91.56.63,1.09,1.28,1.58,1.94h.58c-.04-1.24-.05-2.13-.05-2.66,0-2.62.03-4.71.08-6.3.05-1.58.13-2.67.22-3.27-.21.04-.44.05-.69.05s-.48-.02-.72-.05c.14,1.64.21,3.05.21,4.22v4.8c-1.42-1.48-2.83-2.98-4.23-4.51-1.4-1.53-2.8-3.11-4.2-4.74h-.63c.04.99.05,1.88.05,2.67,0,2.38-.03,4.37-.08,5.95-.05,1.59-.13,2.8-.22,3.63Z"/>
  <rect x="17.38" y="17.42" width="255.12" height="141.73"/>
  <rect class="cls-4" x="17.38" y="17.42" width="255.12" height="141.73"/>
  <path class="cls-1" d="m163.74,80.72c.84,0,1.48.27,1.93.8.45.53.67,1.3.67,2.31s-.22,1.78-.67,2.31c-.45.53-1.09.79-1.93.79s-1.49-.27-1.93-.8c-.44-.53-.66-1.32-.66-2.35,0-.97.22-1.73.67-2.26.45-.53,1.09-.8,1.93-.8m0,6.65c.59,0,1.11-.08,1.57-.24.46-.16.85-.39,1.17-.7.32-.3.56-.67.72-1.11.17-.44.25-.94.25-1.49s-.08-1.06-.25-1.5c-.17-.44-.41-.81-.72-1.11-.32-.31-.7-.54-1.17-.7-.46-.16-.99-.24-1.58-.24s-1.1.08-1.56.25c-.46.17-.85.4-1.17.71-.32.31-.56.68-.74,1.12-.17.44-.25.93-.25,1.47s.08,1.03.25,1.46c.17.44.41.81.74,1.12.32.31.71.54,1.17.71.46.17.99.25,1.57.25Z"/>
  <path class="cls-1" d="m168.65,87.24c.67-.02,1.32-.03,1.95-.03s1.25.01,1.85.03c-.02-.11-.03-.22-.03-.34s0-.24.03-.36c-.55.11-1.1.17-1.65.17h-1.01c-.01-.35-.02-.83-.03-1.42,0-.59,0-1.32,0-2.17,0-.42,0-.85,0-1.3,0-.45.03-.92.06-1.41-.09.01-.19.02-.29.03-.1,0-.2,0-.3,0-.09,0-.19,0-.29,0-.1,0-.2-.02-.29-.03.05.51.09,1.04.11,1.61.02.57.02,1.17.02,1.81s0,1.24-.03,1.81c-.02.56-.05,1.1-.1,1.6"/>
  <path class="cls-1" d="m173.27,87.24c.1-.02.2-.03.3-.04.1,0,.2,0,.3,0s.2,0,.3,0c.1,0,.2.02.3.04-.05-.51-.08-1.04-.09-1.6-.02-.56-.03-1.17-.03-1.81s0-1.24.02-1.81c.01-.57.05-1.1.1-1.61-.1.01-.2.03-.3.04-.1,0-.2.01-.3.01s-.2,0-.3-.01c-.1-.01-.2-.02-.3-.04.05.51.09,1.04.1,1.61.02.57.03,1.17.03,1.81s-.01,1.24-.03,1.81c-.02.56-.05,1.1-.1,1.6"/>
  <path class="cls-1" d="m177.97,87.24c.15-.03.28-.05.39-.05.12,0,.25.02.38.05.28-.85.65-1.84,1.1-2.97.45-1.14,1.02-2.42,1.69-3.86-.07.01-.15.02-.23.03-.08,0-.15,0-.22,0s-.15,0-.23,0c-.08,0-.15-.02-.24-.03-.12.47-.27.96-.44,1.48-.18.52-.38,1.08-.61,1.67l-.97,2.55-1.07-2.88c-.17-.45-.33-.9-.51-1.37-.17-.47-.33-.95-.48-1.45-.11.01-.21.02-.31.03-.1,0-.21,0-.31,0s-.21,0-.31,0c-.1,0-.21-.02-.33-.03.77,1.76,1.38,3.21,1.82,4.34.44,1.13.73,1.96.87,2.49"/>
  <path class="cls-1" d="m183.37,84.99v-1.09h.24c.91,1.08,1.71,2.19,2.4,3.34.12-.01.24-.02.35-.03.12-.01.24-.01.35-.01s.24,0,.37.01c.12,0,.24.02.37.03-.5-.63-.97-1.24-1.42-1.81-.44-.58-.87-1.13-1.27-1.67.65-.11,1.13-.32,1.46-.63.33-.31.5-.69.5-1.15,0-.51-.18-.91-.55-1.18-.37-.27-.91-.41-1.62-.41-.21,0-.45,0-.7.02-.25.02-.52.03-.81.03-.22,0-.45-.01-.69-.03.03.42.06.85.08,1.31.02.45.02.92.02,1.42,0,1.41-.04,2.78-.12,4.1.09-.02.18-.03.27-.04.09,0,.18,0,.28,0s.18,0,.27,0c.09,0,.18.02.27.04-.02-.4-.04-.79-.05-1.16-.01-.37-.02-.74-.02-1.09m0-1.45v-1.44c0-.17,0-.37,0-.58,0-.21.02-.44.05-.69.11-.01.21-.02.31-.03.1,0,.19-.01.28-.01.55,0,.97.11,1.26.35.29.23.43.56.43.97,0,.47-.17.82-.5,1.07-.33.25-.83.37-1.5.37h-.17c-.05,0-.11,0-.17,0Z"/>
  <path class="cls-1" d="m189.07,84.13l.99-2.48.96,2.48c-.29.02-.6.03-.92.03s-.67,0-1.03-.03m-1.93,3.11c.07-.01.15-.02.22-.03.07-.01.15-.01.22-.01.13,0,.28.02.43.05.13-.54.28-1.05.45-1.52l.39-1.07c.44-.02.86-.03,1.26-.03s.77,0,1.13.03c.17.42.32.84.47,1.27.15.43.29.87.42,1.32.1-.01.2-.02.31-.03.1-.01.21-.01.31-.01s.22,0,.33.01c.11,0,.22.02.34.03-.51-1.19-1-2.36-1.47-3.51-.47-1.15-.92-2.3-1.36-3.45-.07.02-.15.03-.23.03-.07,0-.15,0-.24-.03-.47,1.14-.95,2.29-1.43,3.44-.49,1.15-1,2.33-1.54,3.52Z"/>
  <path class="cls-1" d="m202.96,86.98c-.01-.23-.02-.47-.03-.7-.01-.23-.01-.47-.01-.7s0-.47.01-.71c0-.24.02-.48.03-.73-.2.04-.4.06-.6.06-.09,0-.18,0-.26-.01-.08-.01-.17-.02-.27-.04.03.24.04.48.05.72,0,.24.01.48.01.71,0,.33-.01.65-.03.98-.51.24-1.04.36-1.57.36-.43,0-.82-.07-1.16-.21-.34-.14-.63-.35-.86-.62-.23-.27-.41-.6-.54-.99-.13-.39-.19-.84-.19-1.34,0-.47.06-.89.19-1.26.13-.38.31-.7.55-.97.24-.27.52-.47.85-.61.33-.14.69-.22,1.09-.22.5,0,.93.1,1.29.29.36.19.67.47.92.85h.16c0-.34.09-.66.26-.95-.35-.19-.73-.34-1.16-.44-.43-.1-.89-.15-1.4-.15-.59,0-1.13.08-1.61.25-.48.17-.89.4-1.23.71-.34.31-.6.68-.77,1.12-.18.44-.27.92-.27,1.46,0,.56.08,1.06.25,1.5.17.44.41.82.74,1.13.32.31.71.54,1.19.7.47.16,1,.24,1.61.24.87,0,1.78-.13,2.75-.4"/>
  <path class="cls-1" d="m205.23,84.99v-1.09h.24c.91,1.08,1.71,2.19,2.4,3.34.12-.01.24-.02.35-.03.12-.01.24-.01.35-.01s.24,0,.37.01c.12,0,.24.02.37.03-.5-.63-.97-1.24-1.42-1.81-.44-.58-.87-1.13-1.27-1.67.65-.11,1.13-.32,1.46-.63.33-.31.5-.69.5-1.15,0-.51-.18-.91-.55-1.18-.37-.27-.91-.41-1.62-.41-.21,0-.45,0-.7.02-.25.02-.52.03-.81.03-.22,0-.45-.01-.69-.03.03.42.06.85.08,1.31.02.45.02.92.02,1.42,0,1.41-.04,2.78-.12,4.1.09-.02.18-.03.27-.04.09,0,.18,0,.27,0s.18,0,.27,0c.09,0,.18.02.27.04-.02-.4-.04-.79-.05-1.16-.01-.37-.02-.74-.02-1.09m0-1.45v-1.44c0-.17,0-.37,0-.58,0-.21.02-.44.05-.69.11-.01.21-.02.31-.03.1,0,.19-.01.28-.01.55,0,.97.11,1.26.35.29.23.43.56.43.97,0,.47-.17.82-.5,1.07-.33.25-.83.37-1.5.37h-.17c-.05,0-.11,0-.17,0Z"/>
  <path class="cls-1" d="m213.23,80.72c.84,0,1.48.27,1.93.8.45.53.67,1.3.67,2.31s-.22,1.78-.67,2.31c-.45.53-1.09.79-1.93.79s-1.49-.27-1.93-.8c-.44-.53-.66-1.32-.66-2.35,0-.97.22-1.73.67-2.26.45-.53,1.09-.8,1.93-.8m0,6.65c.59,0,1.11-.08,1.57-.24.46-.16.85-.39,1.17-.7.32-.3.56-.67.72-1.11.17-.44.25-.94.25-1.49s-.08-1.06-.25-1.5c-.17-.44-.41-.81-.72-1.11-.32-.31-.71-.54-1.17-.7-.46-.16-.99-.24-1.58-.24s-1.1.08-1.56.25c-.46.17-.85.4-1.17.71-.32.31-.57.68-.74,1.12-.17.44-.25.93-.25,1.47s.08,1.03.25,1.46c.17.44.41.81.74,1.12.32.31.71.54,1.17.71.46.17.99.25,1.57.25Z"/>
  <path class="cls-1" d="m218.08,80.41c.04.28.07.56.08.85.02.29.03.58.03.87v2.33c0,.38.02.72.05,1.03.04.31.14.6.31.88.42.67,1.22,1,2.39,1,1.99,0,2.99-.94,2.99-2.82v-1.71c0-.52.01-.98.03-1.38.02-.4.05-.75.1-1.05-.13.03-.27.04-.44.04s-.31-.01-.44-.04c.05.33.08.66.09.99.01.33.02.68.02,1.03v1.68c0,.24,0,.46-.01.67,0,.21-.03.4-.06.58-.04.17-.09.33-.16.49-.07.15-.17.28-.3.4-.4.38-.95.57-1.65.57-.48,0-.86-.09-1.14-.26-.28-.17-.5-.45-.65-.83-.11-.29-.17-.9-.17-1.83v-1.76c0-.19,0-.43.03-.72.02-.29.05-.62.08-1.01-.1.01-.2.02-.3.03-.1,0-.2,0-.29,0-.1,0-.2,0-.3,0-.1,0-.2-.02-.3-.03"/>
  <path class="cls-1" d="m226.64,83.75v-1.56c0-.13,0-.31,0-.54,0-.23.02-.5.04-.82.31-.02.54-.03.69-.03.52,0,.92.12,1.19.37.28.25.42.59.42,1.02,0,1.05-.68,1.57-2.03,1.57h-.16c-.05,0-.11,0-.16,0m-1.06,3.49c.09-.02.19-.03.28-.04.09,0,.19,0,.28,0s.19,0,.27,0c.09,0,.18.02.28.04-.02-.48-.03-.91-.04-1.27,0-.37,0-.7,0-.98v-.84c.15,0,.28,0,.4,0h.34c.42,0,.8-.05,1.13-.14.33-.09.62-.23.85-.4.23-.18.41-.39.52-.63.12-.25.18-.52.18-.82,0-.57-.19-1.01-.57-1.32s-.93-.45-1.66-.45c-.23,0-.48,0-.73.02-.25.02-.52.03-.81.03-.23,0-.46-.01-.7-.03.03.4.06.83.08,1.29.02.46.03.95.03,1.48,0,1.39-.04,2.74-.12,4.07Z"/>
  <path class="cls-1" d="m233.66,86.05c-.05.17-.09.34-.13.51-.04.17-.09.33-.12.5.43.2.9.3,1.41.3.63,0,1.11-.14,1.46-.43.35-.29.52-.68.52-1.18,0-.19-.03-.36-.08-.5-.05-.14-.13-.26-.24-.37-.11-.1-.25-.19-.42-.27-.17-.07-.37-.15-.6-.22-.19-.06-.35-.11-.5-.16-.15-.04-.27-.1-.38-.16-.1-.06-.18-.13-.24-.22-.06-.09-.08-.2-.08-.33,0-.23.08-.42.25-.57.17-.15.4-.23.69-.23.58,0,.91.26.99.78h.1c.05-.15.1-.3.15-.45.05-.15.09-.29.14-.42-.45-.21-.88-.32-1.3-.32-.27,0-.52.04-.74.11-.22.08-.41.18-.56.31-.16.13-.28.3-.36.48-.08.19-.12.4-.12.63,0,.35.11.62.32.81.21.2.54.37.99.51.19.06.35.11.5.16.15.05.28.1.38.16.11.06.19.14.25.23.06.09.08.21.08.36,0,.27-.09.49-.28.64-.19.15-.45.23-.8.23s-.6-.07-.78-.22c-.19-.15-.32-.38-.39-.7h-.09Z"/>
  <path class="cls-1" d="m237.97,86.73c0,.18.06.33.19.45.13.12.28.19.45.19s.33-.06.46-.19.19-.28.19-.45-.06-.33-.19-.45c-.13-.12-.28-.18-.45-.18s-.33.06-.46.19c-.12.12-.19.27-.19.44"/>
  <path class="cls-1" d="m240.65,87.24c.09-.01.17-.02.25-.03.08-.01.16-.01.25-.01.15,0,.32.02.5.05-.04-.55-.06-1.03-.06-1.44v-1.04c0-.22.02-.43.05-.63.04-.2.14-.4.31-.59.09-.11.21-.19.35-.25.14-.06.28-.09.44-.09.08,0,.17,0,.28.03.11.02.24.05.38.08-.01-.09-.02-.17-.03-.25,0-.08-.01-.16-.01-.24s0-.16.01-.24c0-.08.02-.16.03-.23-.04,0-.08,0-.12,0h-.11c-.67,0-1.19.37-1.57,1.12v-.12c0-.13,0-.28.02-.43.01-.15.03-.31.06-.46-.09.01-.17.02-.26.03-.08,0-.17,0-.26,0-.09,0-.18,0-.26,0-.08,0-.17-.02-.26-.03.04.3.06.58.07.85,0,.27,0,.52,0,.77,0,.81,0,1.47-.01,2,0,.53-.03.92-.06,1.17"/>
  <path class="cls-1" d="m243.34,86.73c0,.18.06.33.19.45.13.12.28.19.45.19s.33-.06.45-.19c.12-.13.19-.28.19-.45s-.06-.33-.19-.45c-.13-.12-.28-.18-.45-.18s-.33.06-.45.19c-.12.12-.19.27-.19.44"/>
  <path class="cls-1" d="m249.54,84.85c0,.69-.13,1.21-.38,1.58-.25.37-.6.56-1.04.56s-.79-.19-1.05-.56c-.26-.37-.39-.9-.39-1.58s.13-1.23.38-1.6c.26-.37.61-.56,1.06-.56s.79.18,1.04.55c.25.37.38.9.38,1.6m1.03,0c0-.39-.06-.74-.17-1.05-.11-.31-.28-.58-.49-.79-.21-.22-.47-.38-.77-.5-.3-.12-.65-.17-1.03-.17s-.71.06-1.02.18c-.3.12-.56.29-.77.51-.21.22-.38.49-.5.79-.12.31-.18.66-.18,1.04,0,.79.22,1.4.66,1.84.44.44,1.04.67,1.81.67.37,0,.71-.06,1.01-.17.3-.12.56-.28.77-.51.21-.22.38-.49.5-.79.12-.31.17-.66.17-1.03Z"/>
  <path class="cls-1" d="m251.6,86.73c0,.18.06.33.19.45.13.12.28.19.45.19s.33-.06.46-.19c.12-.13.19-.28.19-.45s-.06-.33-.19-.45c-.13-.12-.28-.18-.45-.18s-.33.06-.45.19c-.12.12-.19.27-.19.44"/>
  <path class="cls-1" d="m161.11,95.88v-.87h.19c.73.86,1.37,1.75,1.92,2.67.1-.01.19-.02.28-.03.09,0,.19-.01.28-.01s.19,0,.29.01c.1,0,.2.02.29.03-.4-.51-.78-.99-1.13-1.45-.35-.46-.69-.91-1.01-1.33.52-.09.91-.26,1.17-.5.26-.25.4-.55.4-.92,0-.41-.15-.73-.44-.94-.29-.22-.73-.33-1.3-.33-.17,0-.36,0-.56.02-.2.01-.42.02-.65.02-.18,0-.36,0-.55-.02.03.34.05.68.06,1.04.01.36.02.74.02,1.14,0,1.13-.03,2.22-.1,3.28.07-.02.15-.03.22-.03.07,0,.15,0,.22,0s.15,0,.22,0c.07,0,.15.02.22.03-.02-.32-.03-.63-.04-.93-.01-.3-.02-.59-.02-.87m0-1.16v-1.15c0-.14,0-.29,0-.46,0-.17.02-.35.04-.55.09-.01.17-.02.24-.02.08,0,.15,0,.23,0,.44,0,.78.09,1.01.28.23.18.34.44.34.78,0,.37-.13.66-.4.86-.27.2-.67.3-1.2.3h-.14s-.09,0-.14,0Z"/>
  <path class="cls-1" d="m168.11,93.84c-.06.01-.13.02-.2.02-.07,0-.13,0-.2,0-.14,0-.27-.01-.39-.03.01.3.02.6.03.9,0,.3.01.61.01.93,0,.54-.08.94-.23,1.2-.15.26-.42.4-.79.4-.31,0-.53-.09-.66-.26-.14-.17-.21-.43-.21-.79,0-.2,0-.5.02-.9.01-.39.03-.89.06-1.49-.06.01-.13.02-.19.02-.07,0-.13,0-.2,0-.14,0-.27-.01-.4-.03.02.26.03.5.03.73,0,.22,0,.43,0,.62v1.14c0,.49.1.85.3,1.09.2.24.53.36.98.36.29,0,.54-.06.74-.19.21-.13.4-.32.57-.6,0,.12-.01.24-.02.36,0,.11-.01.23-.02.33.06-.01.13-.02.19-.03.06,0,.13-.01.19-.01.06,0,.12,0,.18.01.06,0,.13.02.19.03-.03-.25-.04-.49-.05-.75,0-.25,0-.51,0-.78,0-.52,0-.97,0-1.35,0-.38.02-.7.05-.96m-1.65-1.78c.13,0,.23.05.31.14.08.09.12.22.12.38,0,.19-.04.33-.12.43-.08.1-.19.15-.33.15s-.24-.04-.32-.13c-.08-.09-.12-.21-.12-.36,0-.19.04-.34.12-.45.08-.11.19-.16.33-.16Zm-.04,1.33c.24,0,.44-.08.6-.23.16-.15.24-.35.24-.58s-.07-.41-.21-.54c-.14-.14-.32-.21-.55-.21-.24,0-.44.08-.6.23-.16.15-.24.35-.24.58s.07.41.22.54c.14.14.33.21.55.21Z"/>
  <path class="cls-1" d="m171.87,91.96h-.29l-.86.76-.86-.76h-.29l.9,1.36h.52l.89-1.36Zm-3.12,5.72c.38-.03.79-.05,1.23-.05.55,0,1.27.02,2.16.05-.01-.04-.02-.09-.02-.13,0-.04,0-.09,0-.13s0-.09,0-.13c0-.04.01-.09.02-.13-.33.04-.62.07-.86.09-.24.02-.44.02-.6.02h-.87c.37-.57.76-1.12,1.16-1.66.4-.54.81-1.07,1.24-1.61v-.17c-.21.02-.46.03-.73.04-.27,0-.58,0-.91,0-.28,0-.54,0-.8,0-.26,0-.5-.02-.74-.04.02.08.02.16.02.25s0,.18-.02.27c.42-.08.83-.12,1.22-.12h.86c-.35.53-.72,1.07-1.11,1.61-.39.54-.8,1.09-1.24,1.65v.18Z"/>
  <path class="cls-1" d="m175.8,95.76c0,.55-.1.97-.3,1.27-.2.3-.48.44-.83.44s-.63-.15-.84-.44c-.21-.3-.31-.72-.31-1.27s.1-.98.31-1.28c.21-.3.49-.44.84-.44s.63.15.83.44c.2.29.3.72.3,1.28m.82,0c0-.31-.05-.59-.14-.84-.09-.25-.22-.46-.39-.64-.17-.17-.38-.31-.62-.4-.24-.09-.52-.14-.82-.14s-.57.05-.81.14c-.24.1-.45.23-.62.41-.17.18-.3.39-.4.64-.09.25-.14.52-.14.83,0,.63.17,1.12.52,1.48.35.35.83.53,1.44.53.3,0,.57-.05.81-.14.24-.09.45-.23.62-.4.17-.18.3-.39.4-.64.09-.25.14-.52.14-.83Z"/>
  <path class="cls-1" d="m178.46,97.68c.1-.03.19-.05.29-.05.1,0,.2.02.3.05.25-.67.51-1.33.78-1.96.27-.64.57-1.26.9-1.87-.06.01-.12.02-.17.02-.06,0-.11,0-.17,0-.12,0-.24-.01-.34-.03-.13.46-.26.89-.41,1.27l-.66,1.78-.62-1.58c-.08-.21-.16-.43-.24-.68-.08-.24-.16-.51-.25-.8-.08.01-.16.02-.24.02-.08,0-.16,0-.25,0-.08,0-.16,0-.24,0-.08,0-.17-.01-.26-.02.45.96.81,1.76,1.07,2.39.26.63.43,1.11.52,1.44"/>
  <path class="cls-1" d="m181.91,93.32h.29l1.18-.71c.11-.07.19-.13.24-.19.06-.06.08-.12.08-.2,0-.09-.03-.16-.09-.22-.06-.06-.13-.09-.21-.09-.13,0-.27.08-.42.24l-1.08,1.18Zm1.35,3.86c.03.19.08.32.17.41.08.09.21.13.37.13.11,0,.22-.02.34-.05.12-.03.25-.08.39-.15v-.17c-.07,0-.12,0-.16,0-.04,0-.06,0-.07,0-.15,0-.25-.03-.29-.1-.04-.07-.06-.19-.06-.35v-1.9c0-.44-.1-.77-.31-.97-.21-.2-.56-.3-1.06-.3s-.95.16-1.29.47l-.04.43.17.06c.08-.2.2-.36.37-.47.17-.11.36-.16.59-.16.28,0,.5.08.66.24.16.16.24.38.24.67,0,.13-.02.22-.07.28-.05.06-.13.1-.24.13l-.73.16c-.22.05-.42.1-.58.16-.16.06-.3.13-.41.22-.11.09-.19.2-.24.33-.05.13-.08.29-.08.48,0,.31.1.56.3.76.2.19.47.29.8.29.47,0,.88-.2,1.21-.6Zm0-1.53v.74c0,.29-.09.52-.25.68-.17.16-.39.24-.65.24-.2,0-.35-.06-.47-.19-.12-.13-.17-.3-.17-.52,0-.23.09-.42.26-.55.17-.13.44-.23.81-.3l.48-.1Z"/>
  <path class="cls-1" d="m188.51,97.68c.13-.04.27-.06.42-.06.07,0,.15,0,.22.01.07,0,.15.02.22.04-.01-.27-.02-.52-.02-.75v-.7c0-1.48.03-2.82.1-4l-.09-.02c-.38.26-.76.47-1.14.66-.38.18-.76.33-1.14.46.15.11.28.24.37.41.12-.09.25-.17.37-.25.13-.08.25-.15.38-.23l.4-.22c.01.19.02.36.02.52,0,.16,0,.31,0,.46,0,.84-.01,1.57-.04,2.18-.02.61-.06,1.11-.1,1.49"/>
  <path class="cls-1" d="m193.72,95.66h-1.79c.27-.4.55-.8.85-1.21.29-.41.61-.83.94-1.26v2.47Zm-.07,2.02c.07-.01.14-.02.2-.03.06,0,.13-.01.19-.01s.13,0,.19.01c.06,0,.13.02.19.03-.02-.39-.02-.66-.02-.82v-.67c.24,0,.48.02.72.05-.02-.09-.03-.19-.03-.3,0-.05,0-.1,0-.15,0-.05.01-.1.02-.16-.08.01-.16.02-.25.02-.09,0-.18,0-.27,0h-.18v-2.12c0-.14,0-.3.01-.5,0-.19.02-.41.04-.66-.05,0-.1,0-.14,0h-.31s-.1,0-.16,0c-.32.46-.69.99-1.12,1.58-.43.59-.91,1.26-1.45,2v.22c.42-.02.82-.02,1.22-.02s.81,0,1.2.02v.56c0,.31-.02.62-.07.93Z"/>
  <path class="cls-1" d="m197.29,97.68c.13-.04.27-.06.42-.06.07,0,.15,0,.22.01.07,0,.15.02.22.04-.01-.27-.02-.52-.02-.75v-.7c0-1.48.03-2.82.1-4l-.09-.02c-.38.26-.76.47-1.14.66-.38.18-.76.33-1.14.46.15.11.28.24.37.41.12-.09.25-.17.37-.25.13-.08.25-.15.38-.23l.4-.22c.01.19.02.36.02.52,0,.16,0,.31,0,.46,0,.84-.01,1.57-.04,2.18-.02.61-.06,1.11-.1,1.49"/>
  <path class="cls-1" d="m202.11,97.45c-.32,0-.57-.11-.76-.34-.18-.23-.28-.55-.28-.98,0-.38.09-.68.27-.9.18-.21.42-.32.73-.32.34,0,.59.11.77.32.18.21.26.53.26.95s-.09.71-.27.93c-.18.22-.42.33-.73.33m1.11-4.62l.02-.38c-.22-.07-.46-.1-.71-.1-.33,0-.64.07-.92.22-.28.15-.53.36-.73.64-.2.27-.36.61-.48.99-.11.39-.17.82-.17,1.3,0,.76.16,1.33.48,1.72.32.39.8.58,1.43.58.26,0,.5-.04.72-.13.22-.09.4-.2.56-.35.15-.15.27-.33.36-.54.09-.21.13-.44.13-.69,0-.23-.04-.45-.11-.64-.07-.19-.17-.36-.3-.5-.13-.14-.29-.24-.47-.32-.18-.07-.39-.11-.6-.11-.26,0-.5.05-.71.14-.21.09-.42.24-.62.44.03-.81.17-1.42.43-1.84.26-.41.63-.62,1.1-.62.18,0,.38.06.6.19Z"/>
  <polygon class="cls-1" points="204.41 98.42 206.62 91.68 206.24 91.68 204.04 98.42 204.41 98.42"/>
  <path class="cls-1" d="m208.32,97.68c.13-.04.27-.06.42-.06.07,0,.15,0,.22.01.07,0,.15.02.22.04-.01-.27-.02-.52-.02-.75v-.7c0-1.48.03-2.82.1-4l-.09-.02c-.38.26-.76.47-1.14.66-.38.18-.76.33-1.14.46.15.11.28.24.37.41.12-.09.25-.17.37-.25.13-.08.25-.15.38-.23l.4-.22c.01.19.02.36.02.52,0,.16,0,.31,0,.46,0,.84-.01,1.57-.04,2.18-.02.61-.06,1.11-.1,1.49"/>
  <path class="cls-1" d="m211.62,97.68c.13-.03.26-.05.39-.05s.25.02.37.05c.3-.7.69-1.47,1.15-2.32.46-.85,1.01-1.77,1.64-2.78v-.1c-.18.01-.37.02-.55.02h-2.26c-.27,0-.5,0-.7-.02.02.06.03.13.03.19,0,.06,0,.13,0,.19s0,.13,0,.19c0,.06-.02.13-.03.2.47-.06.93-.1,1.37-.1h1.32c-.41.73-.84,1.47-1.29,2.22-.45.75-.93,1.51-1.43,2.3"/>
  <path class="cls-1" d="m161.47,107.56c.13-.04.27-.06.42-.06.07,0,.15,0,.22.01.07,0,.15.02.22.04-.01-.27-.02-.52-.02-.75v-.7c0-1.48.03-2.82.1-4l-.09-.02c-.38.26-.76.47-1.14.66-.38.18-.76.33-1.14.46.15.11.28.24.37.41.12-.09.25-.17.37-.25.13-.08.25-.15.38-.23l.4-.22c.01.19.02.36.02.52,0,.16,0,.31,0,.46,0,.84-.01,1.57-.04,2.18-.02.61-.06,1.11-.1,1.49"/>
  <path class="cls-1" d="m165.86,107.56c.13-.04.27-.06.42-.06.07,0,.15,0,.22.01.07,0,.15.02.22.04-.01-.27-.02-.52-.02-.75v-.7c0-1.48.03-2.82.1-4l-.09-.02c-.38.26-.76.47-1.14.66-.38.18-.76.33-1.14.46.15.11.28.24.37.41.12-.09.25-.17.37-.25.13-.08.25-.15.38-.23l.4-.22c.01.19.02.36.02.52,0,.16,0,.31,0,.46,0,.84-.01,1.57-.04,2.18-.02.61-.06,1.11-.1,1.49"/>
  <path class="cls-1" d="m169.53,104.96c0-.82.08-1.42.24-1.81.16-.39.45-.58.85-.58s.68.2.84.59c.16.39.24.99.24,1.8s-.08,1.42-.24,1.81c-.16.39-.44.59-.84.59s-.69-.2-.85-.59c-.16-.39-.24-1-.24-1.81m-.82,0c0,.91.16,1.59.48,2.04.32.45.8.68,1.42.68s1.1-.23,1.42-.68c.32-.45.48-1.13.48-2.04s-.16-1.59-.48-2.04c-.32-.46-.8-.68-1.42-.68s-1.1.23-1.42.68c-.32.46-.48,1.14-.48,2.04Z"/>
  <path class="cls-1" d="m176.11,104.96c0-.82.08-1.42.24-1.81.16-.39.45-.58.85-.58s.68.2.84.59c.16.39.24.99.24,1.8s-.08,1.42-.24,1.81c-.16.39-.44.59-.84.59s-.69-.2-.85-.59c-.16-.39-.24-1-.24-1.81m-.82,0c0,.91.16,1.59.48,2.04.32.45.8.68,1.42.68s1.1-.23,1.42-.68c.32-.45.48-1.13.48-2.04s-.16-1.59-.48-2.04c-.32-.46-.8-.68-1.42-.68s-1.1.23-1.42.68c-.32.46-.48,1.14-.48,2.04Z"/>
  <path class="cls-1" d="m180.51,104.96c0-.82.08-1.42.24-1.81.16-.39.45-.58.85-.58s.68.2.84.59c.16.39.24.99.24,1.8s-.08,1.42-.24,1.81c-.16.39-.44.59-.84.59s-.69-.2-.85-.59c-.16-.39-.24-1-.24-1.81m-.82,0c0,.91.16,1.59.48,2.04.32.45.8.68,1.42.68s1.1-.23,1.42-.68c.32-.45.48-1.13.48-2.04s-.16-1.59-.48-2.04c-.32-.46-.8-.68-1.42-.68s-1.1.23-1.42.68c-.32.46-.48,1.14-.48,2.04Z"/>
  <path class="cls-1" d="m187.48,104.77v-1.25c0-.11,0-.25,0-.43,0-.18.02-.4.03-.66.25-.02.43-.02.55-.02.42,0,.73.1.96.3.22.2.33.47.33.82,0,.84-.54,1.26-1.62,1.26h-.13s-.09,0-.13,0m-.85,2.79c.07-.02.15-.03.22-.03.07,0,.15,0,.22,0s.15,0,.22,0c.07,0,.15.02.22.03-.02-.38-.03-.72-.03-1.02,0-.3,0-.56,0-.78v-.67c.12,0,.22,0,.32,0h.27c.34,0,.64-.04.9-.11.27-.07.49-.18.68-.32.18-.14.32-.31.42-.51.1-.2.14-.42.14-.66,0-.46-.15-.81-.45-1.05-.3-.24-.74-.36-1.32-.36-.19,0-.38,0-.58.02-.2.01-.42.02-.65.02-.18,0-.37,0-.56-.02.03.32.05.66.06,1.03.01.37.02.76.02,1.18,0,1.11-.03,2.19-.1,3.26Z"/>
  <path class="cls-1" d="m190.83,107.56c.07-.01.13-.02.2-.03.06,0,.13-.01.2-.01.12,0,.26.01.4.04-.03-.44-.05-.82-.05-1.15v-.83c0-.18.01-.34.04-.5.03-.16.11-.32.25-.47.07-.09.17-.15.28-.2.11-.05.23-.07.35-.07.06,0,.14,0,.23.02.09.02.19.04.31.06-.01-.07-.02-.14-.02-.2,0-.06,0-.13,0-.19s0-.13,0-.19c0-.06.01-.13.02-.18-.03,0-.06,0-.1,0h-.09c-.53,0-.95.3-1.26.9v-.1c0-.11,0-.22.02-.34.01-.12.03-.24.05-.37-.07.01-.14.02-.21.02-.07,0-.14,0-.21,0-.07,0-.14,0-.21,0-.07,0-.14-.01-.21-.02.03.24.05.47.06.68,0,.21,0,.42,0,.62,0,.65,0,1.18-.01,1.6,0,.42-.03.73-.05.94"/>
  <path class="cls-1" d="m195.71,107.07c.03.19.08.32.17.41.08.09.21.13.37.13.11,0,.22-.02.34-.05.12-.03.25-.08.39-.15v-.17c-.07,0-.12,0-.16,0-.04,0-.06,0-.07,0-.15,0-.25-.03-.29-.1-.04-.07-.06-.19-.06-.35v-1.9c0-.44-.1-.77-.31-.97-.21-.2-.56-.3-1.06-.3s-.95.16-1.29.47l-.04.43.17.06c.08-.2.2-.36.37-.47.17-.11.36-.16.59-.16.28,0,.5.08.66.24.16.16.24.38.24.67,0,.13-.02.22-.07.28s-.13.1-.24.13l-.73.16c-.22.05-.42.1-.58.16-.16.06-.3.13-.41.22-.11.09-.19.2-.24.33-.05.13-.08.29-.08.48,0,.31.1.56.3.76.2.19.47.29.8.29.47,0,.88-.2,1.21-.6m0-1.53v.74c0,.29-.09.52-.25.68-.17.16-.39.24-.65.24-.2,0-.35-.06-.47-.19-.12-.13-.17-.3-.17-.52,0-.23.09-.42.26-.55.17-.13.44-.23.81-.3l.48-.1Z"/>
  <path class="cls-1" d="m197.49,107.56c.07-.01.14-.02.2-.03.06,0,.13-.01.2-.01.06,0,.13,0,.2.01.07,0,.13.02.2.03-.01-.3-.02-.61-.03-.91,0-.3-.01-.61-.01-.92,0-.54.08-.94.23-1.2.15-.26.41-.4.77-.4.3,0,.53.1.69.3.08.11.13.23.15.37.02.14.03.3.03.5v.47c0,.25,0,.52-.02.82-.01.3-.02.62-.04.97.07-.01.14-.02.2-.03.06,0,.13-.01.2-.01.06,0,.13,0,.2.01.07,0,.13.02.2.03-.01-.2-.02-.39-.02-.58,0-.18,0-.35,0-.5v-1.44c0-.2-.01-.38-.04-.54-.02-.15-.1-.31-.23-.46-.11-.13-.24-.23-.41-.3-.17-.07-.35-.11-.55-.11-.57,0-1.01.25-1.34.75v-1.9c0-.18,0-.35,0-.5,0-.15.01-.29.02-.42-.06.01-.13.02-.19.02-.06,0-.13,0-.2,0-.06,0-.13,0-.2,0-.07,0-.13-.01-.2-.02.03.26.04.52.05.78,0,.26.01.54.01.83v.38c0,1.13,0,2.02-.01,2.68,0,.66-.03,1.11-.05,1.32"/>
  <path class="cls-1" d="m203.95,107.07c.03.19.08.32.17.41.08.09.21.13.37.13.11,0,.22-.02.34-.05.12-.03.25-.08.39-.15v-.17c-.07,0-.12,0-.16,0-.04,0-.06,0-.07,0-.15,0-.25-.03-.29-.1-.04-.07-.06-.19-.06-.35v-1.9c0-.44-.1-.77-.31-.97-.21-.2-.56-.3-1.06-.3s-.95.16-1.29.47l-.04.43.17.06c.08-.2.2-.36.37-.47.17-.11.36-.16.59-.16.28,0,.5.08.66.24.16.16.24.38.24.67,0,.13-.02.22-.07.28s-.13.1-.24.13l-.73.16c-.22.05-.42.1-.58.16-.16.06-.3.13-.41.22-.11.09-.19.2-.24.33-.05.13-.08.29-.08.48,0,.31.1.56.3.76.2.19.47.29.8.29.47,0,.88-.2,1.21-.6m0-1.53v.74c0,.29-.09.52-.25.68-.17.16-.39.24-.65.24-.2,0-.35-.06-.47-.19-.12-.13-.17-.3-.17-.52,0-.23.09-.42.26-.55.17-.13.44-.23.81-.3l.48-.1Z"/>
  <path class="cls-1" d="m209.19,107.56c.13-.04.27-.06.42-.06.07,0,.15,0,.22.01.07,0,.15.02.22.04-.01-.27-.02-.52-.02-.75v-.7c0-1.48.03-2.82.1-4l-.09-.02c-.38.26-.76.47-1.14.66-.38.18-.76.33-1.14.46.15.11.28.24.37.41.12-.09.25-.17.37-.25.13-.08.25-.15.38-.23l.4-.22c.01.19.02.36.02.52,0,.16,0,.31,0,.46,0,.84-.01,1.57-.04,2.18-.02.61-.06,1.11-.1,1.49"/>
  <path class="cls-1" d="m40.39,77.35v-.82c0-.13,0-.26,0-.39,0-.13.01-.26.03-.4.09,0,.18-.02.27-.02.09,0,.17,0,.25,0,.4,0,.7.07.91.2.21.13.31.32.31.57,0,.59-.45.88-1.36.88-.13,0-.27,0-.41-.02m-.67,2.35c.07,0,.14-.01.2-.02.06,0,.13,0,.19,0,.12,0,.26,0,.4.01.14,0,.3.01.47.01.66,0,1.16-.11,1.49-.32.34-.21.5-.52.5-.93,0-.3-.11-.54-.34-.7-.23-.16-.57-.26-1.04-.3.83-.13,1.24-.47,1.24-1,0-.33-.15-.57-.45-.72-.3-.14-.76-.22-1.39-.22-.2,0-.38,0-.53,0-.15,0-.27,0-.37,0-.04,0-.09,0-.14,0-.06,0-.13,0-.21,0,.03.52.04,1.35.04,2.49,0,.3,0,.59-.01.87,0,.28-.03.55-.06.81Zm.65-2.09c.1,0,.19-.01.28-.02.09,0,.17,0,.24,0,.49,0,.85.08,1.08.23.23.15.35.39.35.71,0,.3-.12.53-.37.7-.25.17-.59.26-1.02.26-.15,0-.32-.02-.5-.05-.02-.17-.03-.35-.04-.55,0-.2,0-.42,0-.66v-.6Z"/>
  <path class="cls-1" d="m44.14,79.69c.06,0,.12-.02.18-.02.06,0,.12,0,.17,0,.1,0,.21,0,.33.03-.02-.15-.03-.32-.04-.5,0-.18,0-.37,0-.58,0-.15,0-.31,0-.48,0-.17,0-.34,0-.52v-.89c0-.24,0-.46,0-.65,0-.2.01-.38.03-.54-.06,0-.12.01-.17.02-.06,0-.11,0-.17,0-.12,0-.23,0-.33-.02.02.28.04.59.04.94,0,.34,0,.73,0,1.15v.51c0,.29,0,.57,0,.83,0,.26-.02.51-.04.75"/>
  <path class="cls-1" d="m45.34,80.53c.28-.03.51-.07.7-.14.19-.07.35-.16.47-.27.12-.12.2-.26.26-.43.05-.17.08-.37.08-.59,0-.12,0-.34-.01-.68,0-.34-.02-.79-.02-1.36,0-.3,0-.58,0-.83,0-.26.01-.49.02-.71-.06,0-.12.01-.18.02-.06,0-.12,0-.18,0-.09,0-.19,0-.3-.02,0,.16.02.52.04,1.08.01.56.02,1.33.02,2.31,0,.24,0,.44-.03.61-.02.17-.06.31-.13.42-.07.11-.16.2-.29.26-.13.06-.29.11-.51.13l.04.18Z"/>
  <path class="cls-1" d="m50.54,79.54c-.65,0-1.14-.16-1.48-.49-.34-.33-.51-.8-.51-1.42s.17-1.11.52-1.45c.35-.34.84-.51,1.47-.51s1.15.16,1.48.49c.34.33.51.81.51,1.44s-.17,1.11-.52,1.44c-.35.33-.84.49-1.47.49m0,.23c.41,0,.78-.05,1.12-.16.34-.1.62-.25.86-.44.24-.19.42-.42.55-.68.13-.27.2-.56.2-.88s-.06-.63-.19-.9c-.13-.27-.31-.5-.54-.68-.23-.19-.52-.33-.86-.43-.34-.1-.72-.15-1.14-.15s-.79.05-1.13.15c-.34.1-.62.25-.86.44-.24.19-.42.42-.55.68-.13.27-.2.56-.2.89s.06.63.19.9c.13.27.31.49.54.68.23.19.52.33.86.43.34.1.72.15,1.14.15Z"/>
  <path class="cls-1" d="m54.23,75.52c.01.44.02.82.02,1.15s0,.59-.01.8c0,.21-.01.36-.01.45,0,.63.17,1.09.5,1.39.33.3.87.44,1.61.44.86,0,1.47-.24,1.81-.72.15-.21.24-.5.26-.87.03-.37.04-.83.04-1.38v-.16c0-.06,0-.18,0-.36,0-.18.01-.43.03-.75-.07.02-.16.02-.24.02-.08,0-.16,0-.23-.02,0,.33.02.65.02.97,0,.32,0,.63,0,.94,0,.19,0,.36,0,.52,0,.16-.02.3-.04.44-.02.13-.06.26-.11.37-.05.11-.11.21-.2.3-.13.13-.3.24-.51.31-.21.08-.45.11-.71.11-.53,0-.94-.14-1.21-.41-.16-.16-.27-.35-.31-.57-.04-.22-.06-.47-.06-.76,0-.1,0-.33,0-.7,0-.37.01-.87.02-1.52-.06.01-.12.02-.18.02-.06,0-.12,0-.17,0-.12,0-.23,0-.33-.02"/>
  <path class="cls-1" d="m69.75,77.79l.79-1.51c.19.37.33.65.44.86.11.21.17.33.2.39l.13.27c-.2,0-.39,0-.55,0-.17,0-.31,0-.44,0s-.24,0-.33,0c-.09,0-.17,0-.23,0m-1.38,1.89s.08-.01.12-.02c.04,0,.08,0,.12,0,.08,0,.16,0,.24.03.12-.28.24-.55.36-.82.12-.27.26-.54.4-.8.15,0,.3-.01.45-.01h.92c.15,0,.31,0,.46.01l.13.24c.13.26.24.5.35.73.1.23.2.45.28.66.14-.02.26-.03.38-.03.06,0,.13,0,.18,0,.06,0,.12.01.18.02-.35-.68-.71-1.37-1.07-2.07-.36-.7-.72-1.43-1.08-2.17h-.14c-.37.71-.74,1.42-1.12,2.12-.38.7-.77,1.41-1.16,2.11Z"/>
  <path class="cls-1" d="m77.52,79.42l.04-.4c-.26.17-.52.3-.8.38-.27.09-.55.13-.82.13-.29,0-.56-.04-.79-.13-.24-.09-.44-.21-.6-.38-.17-.16-.29-.37-.38-.6-.09-.24-.13-.51-.13-.81,0-.63.17-1.11.52-1.44.35-.34.83-.5,1.44-.5.34,0,.63.05.87.16.24.1.45.27.63.5,0-.1,0-.19.03-.29.02-.1.05-.19.09-.29-.47-.19-1-.29-1.59-.29-.42,0-.81.05-1.14.16-.34.1-.63.25-.86.44-.24.19-.42.42-.55.68-.13.27-.19.56-.19.89,0,.69.22,1.22.67,1.6.45.37,1.08.56,1.91.56.37,0,.69-.03.97-.09.28-.06.51-.14.69-.25"/>
  <path class="cls-1" d="m82.36,79.42l.04-.4c-.26.17-.52.3-.8.38-.27.09-.55.13-.82.13-.29,0-.56-.04-.79-.13-.24-.09-.44-.21-.6-.38-.17-.16-.29-.37-.38-.6-.09-.24-.13-.51-.13-.81,0-.63.17-1.11.52-1.44.35-.34.83-.5,1.44-.5.34,0,.63.05.87.16.24.1.45.27.63.5,0-.1,0-.19.03-.29.02-.1.05-.19.09-.29-.47-.19-1-.29-1.59-.29-.42,0-.81.05-1.14.16-.34.1-.63.25-.86.44-.24.19-.42.42-.55.68-.13.27-.19.56-.19.89,0,.69.22,1.22.67,1.6.45.37,1.08.56,1.91.56.37,0,.69-.03.97-.09.28-.06.51-.14.69-.25"/>
  <path class="cls-1" d="m83.32,79.69c.24,0,.47-.01.7-.01h1.32c.21,0,.42,0,.62.01,0-.03,0-.06,0-.09,0-.03,0-.06,0-.09s0-.06,0-.09c0-.03,0-.06,0-.09-.4.02-.76.04-1.05.05-.3.01-.54.02-.73.02h-.18c0-.3,0-.58-.01-.83,0-.25,0-.47,0-.66v-.29h.35c.31,0,.57,0,.81,0,.23,0,.43.02.59.04,0-.03,0-.06-.01-.09,0-.03,0-.06,0-.09,0-.03,0-.06,0-.09,0-.03,0-.06.01-.09-.35.02-.66.03-.93.04-.27,0-.49,0-.68,0h-.13v-.66c0-.21,0-.5.01-.87h.17c.29,0,.58,0,.87.02.29.01.59.03.88.05,0-.03,0-.06,0-.09,0-.03,0-.06,0-.09,0-.03,0-.06,0-.09,0-.03,0-.06,0-.09-.8.01-1.36.02-1.69.02s-.62,0-.9-.02c.02.28.03.6.04.93,0,.34.01.7.01,1.1,0,.43,0,.82-.01,1.18,0,.35-.02.67-.05.95"/>
  <path class="cls-1" d="m86.62,79.44c.34.22.75.32,1.24.32.27,0,.51-.03.73-.09.22-.06.4-.15.56-.27.15-.12.27-.26.36-.42.08-.16.13-.34.13-.54,0-.26-.08-.48-.24-.64-.16-.16-.41-.3-.74-.42l-.6-.21c-.26-.09-.45-.19-.57-.3-.12-.11-.18-.26-.18-.44,0-.23.08-.42.24-.55.16-.14.38-.2.65-.2.42,0,.76.16,1.02.47.03-.09.06-.17.1-.25.03-.08.07-.15.11-.22-.18-.08-.36-.13-.54-.17-.18-.04-.37-.05-.58-.05-.23,0-.44.03-.64.09-.19.06-.36.14-.5.24-.14.1-.24.23-.32.37-.07.14-.11.3-.11.47,0,.25.08.45.24.61.16.16.41.3.74.41l.6.21c.26.09.45.18.57.3.12.11.18.27.18.47,0,.28-.1.5-.29.66-.19.16-.45.24-.77.24-.27,0-.51-.06-.73-.19-.21-.13-.38-.3-.49-.54,0,.11-.03.22-.06.33-.03.11-.06.21-.1.31"/>
  <path class="cls-1" d="m90.23,79.44c.34.22.75.32,1.24.32.27,0,.51-.03.73-.09.22-.06.4-.15.56-.27.15-.12.27-.26.36-.42s.13-.34.13-.54c0-.26-.08-.48-.24-.64-.16-.16-.41-.3-.74-.42l-.6-.21c-.26-.09-.45-.19-.57-.3-.12-.11-.18-.26-.18-.44,0-.23.08-.42.24-.55.16-.14.38-.2.65-.2.42,0,.76.16,1.02.47.03-.09.06-.17.1-.25.03-.08.07-.15.11-.22-.18-.08-.36-.13-.54-.17-.18-.04-.37-.05-.58-.05-.23,0-.44.03-.64.09-.19.06-.36.14-.5.24-.14.1-.24.23-.32.37-.07.14-.11.3-.11.47,0,.25.08.45.24.61.16.16.41.3.74.41l.6.21c.26.09.44.18.57.3.12.11.18.27.18.47,0,.28-.1.5-.29.66-.19.16-.45.24-.77.24-.27,0-.51-.06-.73-.19-.21-.13-.38-.3-.49-.54,0,.11-.03.22-.06.33-.03.11-.06.21-.1.31"/>
  <path class="cls-1" d="m96.57,79.54c-.65,0-1.14-.16-1.48-.49-.34-.33-.51-.8-.51-1.42s.17-1.11.52-1.45c.35-.34.84-.51,1.47-.51s1.15.16,1.48.49c.34.33.51.81.51,1.44s-.17,1.11-.52,1.44c-.35.33-.84.49-1.47.49m0,.23c.41,0,.78-.05,1.12-.16.34-.1.62-.25.86-.44.24-.19.42-.42.55-.68.13-.27.2-.56.2-.88s-.06-.63-.19-.9c-.13-.27-.31-.5-.54-.68-.23-.19-.52-.33-.86-.43-.34-.1-.72-.15-1.14-.15s-.79.05-1.13.15c-.34.1-.62.25-.86.44-.24.19-.42.42-.55.68-.13.27-.2.56-.2.89s.06.63.19.9c.13.27.31.49.54.68.23.19.52.33.86.43.34.1.72.15,1.14.15Z"/>
  <path class="cls-1" d="m100.92,77.46v-1.07c0-.09,0-.19,0-.3,0-.1.02-.21.04-.33.24-.01.43-.02.58-.02.85,0,1.27.27,1.27.82,0,.6-.55.9-1.65.9h-.12s-.08,0-.13,0m-.65,2.22c.06,0,.12-.02.18-.02.06,0,.12,0,.17,0,.06,0,.12,0,.17,0,.06,0,.11.01.17.02,0-.17-.02-.33-.03-.48,0-.15-.01-.3-.01-.44v-1.11s.05,0,.07,0c.02,0,.05,0,.07,0,.07,0,.13.01.17.03.04.02.09.06.13.1l.81.85c.15.16.3.33.45.5.15.18.31.36.47.56.07,0,.14-.02.21-.02.07,0,.14,0,.22,0s.15,0,.22,0c.07,0,.15.01.22.02-.38-.39-.74-.75-1.07-1.09-.33-.34-.64-.66-.92-.97.48-.07.85-.21,1.1-.4.25-.2.38-.44.38-.72,0-.66-.55-.99-1.67-.99-.24,0-.45,0-.65.01-.2,0-.38.01-.53.01-.04,0-.09,0-.15,0-.06,0-.12,0-.19,0,.02.27.03.58.04.93,0,.35.01.73.01,1.16,0,.39,0,.76,0,1.11,0,.34-.02.67-.04.97Z"/>
  <path class="cls-1" d="m104.66,79.69c.06,0,.12-.02.18-.02.06,0,.12,0,.17,0,.1,0,.21,0,.33.03-.02-.15-.03-.32-.04-.5,0-.18,0-.37,0-.58,0-.15,0-.31,0-.48,0-.17,0-.34,0-.52v-.89c0-.24,0-.46,0-.65s.01-.38.03-.54c-.06,0-.12.01-.17.02-.06,0-.11,0-.17,0-.12,0-.23,0-.33-.02.02.28.04.59.04.94,0,.34,0,.73,0,1.15v.51c0,.29,0,.57,0,.83,0,.26-.02.51-.04.75"/>
  <path class="cls-1" d="m106.66,79.69c.24,0,.47-.01.7-.01h1.32c.21,0,.42,0,.62.01,0-.03,0-.06,0-.09,0-.03,0-.06,0-.09s0-.06,0-.09c0-.03,0-.06,0-.09-.4.02-.75.04-1.05.05-.3.01-.54.02-.73.02h-.18c0-.3,0-.58-.01-.83,0-.25,0-.47,0-.66v-.29h.35c.31,0,.58,0,.81,0,.23,0,.43.02.59.04,0-.03,0-.06-.01-.09,0-.03,0-.06,0-.09,0-.03,0-.06,0-.09,0-.03,0-.06.01-.09-.35.02-.66.03-.92.04-.27,0-.49,0-.68,0h-.13v-.66c0-.21,0-.5.01-.87h.17c.29,0,.58,0,.87.02.29.01.59.03.88.05,0-.03,0-.06,0-.09,0-.03,0-.06,0-.09,0-.03,0-.06,0-.09,0-.03,0-.06,0-.09-.8.01-1.36.02-1.69.02s-.62,0-.9-.02c.02.28.03.6.04.93,0,.34.01.7.01,1.1,0,.43,0,.82-.01,1.18,0,.35-.02.67-.05.95"/>
  <path class="cls-1" d="m109.97,79.44c.34.22.75.32,1.24.32.27,0,.51-.03.73-.09.22-.06.4-.15.56-.27.15-.12.27-.26.36-.42.08-.16.13-.34.13-.54,0-.26-.08-.48-.24-.64-.16-.16-.4-.3-.74-.42l-.6-.21c-.26-.09-.45-.19-.57-.3-.12-.11-.18-.26-.18-.44,0-.23.08-.42.24-.55.16-.14.38-.2.65-.2.42,0,.76.16,1.02.47.03-.09.06-.17.1-.25.03-.08.07-.15.11-.22-.18-.08-.36-.13-.54-.17-.18-.04-.37-.05-.58-.05-.23,0-.44.03-.64.09-.19.06-.36.14-.5.24-.14.1-.24.23-.32.37-.07.14-.11.3-.11.47,0,.25.08.45.24.61.16.16.41.3.74.41l.6.21c.26.09.44.18.57.3.12.11.18.27.18.47,0,.28-.1.5-.29.66-.19.16-.45.24-.77.24-.27,0-.51-.06-.73-.19-.21-.13-.38-.3-.49-.54-.01.11-.03.22-.06.33-.03.11-.06.21-.1.31"/>
  <path class="cls-1" d="m63.44,77.15c-.17-.17-.29-.32-.38-.46-.09-.14-.13-.28-.13-.42,0-.18.06-.32.18-.43.12-.11.28-.16.48-.16.17,0,.3.05.41.15.1.1.16.23.16.4s-.06.34-.18.48c-.12.15-.3.29-.53.44m1.67,2.53c.07-.01.15-.02.22-.02.07,0,.15,0,.23,0s.16,0,.23,0c.08,0,.16.01.24.02-.13-.11-.24-.2-.33-.27-.08-.07-.14-.12-.17-.15l-.52-.5c.18-.18.35-.37.5-.55.16-.19.31-.38.46-.57-.04-.04-.09-.07-.14-.11-.05-.04-.1-.08-.16-.12-.11.23-.23.44-.36.65-.13.2-.28.39-.44.57-.46-.41-.9-.85-1.32-1.33.33-.16.57-.34.73-.53.16-.19.24-.37.24-.55,0-.22-.08-.39-.25-.51-.17-.13-.4-.19-.69-.19-.35,0-.62.08-.83.25-.21.17-.31.39-.31.68,0,.17.04.33.13.48.08.15.21.31.38.48-.22.1-.42.2-.58.3-.17.1-.3.2-.41.31-.11.11-.19.22-.24.34-.05.12-.08.25-.08.4,0,.3.12.54.37.73.25.19.58.28,1.01.28.32,0,.6-.05.86-.14.26-.1.5-.25.73-.45.08.08.17.17.25.25.08.09.16.18.24.27Zm-.64-.69c-.14.16-.31.28-.51.37-.2.09-.42.13-.65.13-.15,0-.3-.02-.43-.07-.13-.05-.25-.11-.34-.2-.1-.08-.17-.18-.23-.29-.05-.11-.08-.23-.08-.35,0-.42.28-.77.85-1.04.24.27.48.52.71.76.23.24.46.47.68.69Z"/>
  <path class="cls-1" d="m47.19,72c-1.79,0-3.16-.44-4.11-1.31-.95-.87-1.42-2.13-1.42-3.77s.48-2.96,1.44-3.86c.96-.9,2.32-1.35,4.09-1.35s3.18.44,4.12,1.31c.94.87,1.41,2.15,1.41,3.84s-.48,2.95-1.44,3.83c-.96.88-2.32,1.31-4.09,1.31m0,.62c1.14,0,2.17-.14,3.1-.41s1.73-.67,2.38-1.17c.66-.5,1.17-1.11,1.53-1.82.36-.71.54-1.49.54-2.34s-.17-1.67-.52-2.39c-.35-.71-.85-1.32-1.5-1.82-.65-.5-1.45-.88-2.38-1.15-.94-.27-1.99-.41-3.15-.41s-2.19.14-3.12.41c-.93.27-1.73.66-2.38,1.16-.66.5-1.17,1.11-1.53,1.82-.36.71-.54,1.5-.54,2.38s.17,1.68.52,2.39c.35.71.85,1.31,1.5,1.81.65.5,1.45.88,2.38,1.14.94.26,2,.4,3.17.4Z"/>
  <path class="cls-1" d="m58.29,72.39c.82-.03,1.71-.05,2.67-.05.75,0,2.34.02,4.77.05,0-.09,0-.17-.01-.25,0-.08-.01-.17-.01-.25s0-.17.01-.25c0-.08.01-.16.01-.25-.97.17-2.37.26-4.19.26h-.74c-.23,0-.45,0-.66-.02-.04-.81-.08-1.6-.1-2.35-.03-.76-.04-1.49-.04-2.21s.02-1.55.05-2.51c.03-.96.09-2.04.15-3.25-.15.02-.31.04-.47.05-.16.01-.32.02-.47.02-.16,0-.33,0-.48-.02-.16-.01-.32-.03-.48-.05.05,1.1.09,2.12.11,3.04.02.92.03,1.76.03,2.51,0,.66-.01,1.45-.03,2.37-.02.92-.06,1.97-.11,3.16"/>
  <path class="cls-1" d="m69.23,72.39c.16-.02.33-.04.49-.06.16-.02.32-.02.47-.02.27,0,.58.03.92.08-.05-.41-.09-.85-.1-1.32-.01-.47-.02-.98-.02-1.53,0-.41,0-.84.01-1.28,0-.44,0-.91,0-1.4v-2.37c0-.64,0-1.22.02-1.74.01-.52.04-1,.08-1.44-.16.02-.33.04-.48.05-.16.01-.32.02-.48.02-.34,0-.65-.02-.92-.06.07.75.11,1.58.11,2.49,0,.91.01,1.93.01,3.06v1.35c0,.78,0,1.51-.02,2.2-.01.69-.05,1.35-.1,1.99"/>
  <path class="cls-1" d="m79.52,72.39c.25-.05.47-.08.68-.08s.43.03.68.08c.9-1.85,1.82-3.69,2.75-5.52.93-1.83,1.9-3.68,2.9-5.57-.21.04-.44.06-.7.06-.25,0-.47-.02-.68-.06-.67,1.54-1.38,3.09-2.14,4.66-.75,1.57-1.56,3.17-2.42,4.82-.82-1.57-1.62-3.14-2.38-4.71-.77-1.57-1.52-3.16-2.26-4.77-.16.02-.33.04-.5.05-.17.01-.34.02-.5.02-.36,0-.69-.02-1.01-.06.92,1.72,1.84,3.5,2.76,5.34.92,1.84,1.87,3.75,2.83,5.74"/>
  <path class="cls-1" d="m91.02,66.47v-2.86c0-.25,0-.51.02-.79.01-.28.05-.56.1-.87.66-.03,1.19-.05,1.6-.05,2.36,0,3.53.73,3.53,2.19,0,1.59-1.53,2.39-4.58,2.39h-.33c-.11,0-.23,0-.35-.02m-1.81,5.92c.16-.02.33-.04.49-.06.16-.02.32-.02.47-.02.16,0,.33,0,.48.02.16.02.31.04.46.06-.03-.45-.05-.88-.07-1.29-.02-.41-.03-.79-.03-1.16v-2.97c.07-.01.13-.02.2-.02s.13,0,.2,0c.19,0,.35.03.47.09.12.06.24.15.35.27l2.24,2.27c.41.42.83.87,1.25,1.34.42.47.86.97,1.32,1.48.19-.02.39-.04.59-.06.2-.02.4-.02.61-.02s.41,0,.62.02c.21.02.41.04.62.06-1.05-1.03-2.04-2-2.96-2.9-.92-.91-1.77-1.77-2.55-2.58,1.34-.19,2.36-.55,3.06-1.08.7-.52,1.05-1.17,1.05-1.92,0-1.75-1.54-2.63-4.62-2.63-.66,0-1.26.01-1.81.03-.55.02-1.04.03-1.48.03-.11,0-.25,0-.41,0s-.34-.01-.53-.02c.05.72.09,1.55.11,2.47.02.92.03,1.95.03,3.08,0,1.05,0,2.03-.02,2.94-.01.91-.05,1.78-.12,2.59Z"/>
  <path class="cls-1" d="m104.13,67.35l2.2-4.02c.52.97.93,1.73,1.22,2.28.29.55.48.89.54,1.03l.35.71c-.56,0-1.07,0-1.53,0-.46,0-.87,0-1.22,0s-.66,0-.92,0c-.26,0-.47,0-.64,0m-3.82,5.03c.11-.02.22-.04.34-.05.12-.01.23-.02.34-.02.22,0,.44.03.68.08.33-.75.66-1.48,1.01-2.19.34-.71.71-1.43,1.11-2.14.42-.02.84-.03,1.25-.03h2.55c.42,0,.85.01,1.27.03l.35.65c.36.68.68,1.33.97,1.94.29.61.55,1.19.78,1.74.38-.05.73-.08,1.05-.08.18,0,.35,0,.51.02.16.02.33.04.49.06-.99-1.81-1.98-3.65-2.97-5.52-.99-1.87-1.99-3.8-2.99-5.78h-.39c-1.03,1.89-2.07,3.78-3.12,5.65-1.05,1.87-2.13,3.75-3.23,5.63Z"/>
  <path class="cls-2" d="m75.33,51.55v-15.56c-.45.13-.87.34-1.25.62-.63.46-1.19,1.1-1.68,1.87-.5.78-.92,1.66-1.22,2.65-.3.98-.46,2.07-.47,3.27,0,1.18.12,2.2.35,3.08.24.89.6,1.63,1.07,2.25.48.62,1.06,1.09,1.76,1.41.44.2.92.34,1.44.41m1.94-15.56v15.55c.5-.08.97-.22,1.39-.42.69-.33,1.27-.81,1.76-1.45.48-.63.85-1.4,1.09-2.31.24-.9.38-1.96.36-3.18-.02-1.23-.22-2.34-.54-3.32-.32-1-.76-1.88-1.28-2.63-.51-.74-1.08-1.35-1.74-1.76-.32-.21-.67-.37-1.04-.47Zm-1.94-3.71h1.94v2.77c.58.13,1.14.38,1.66.73.89.58,1.67,1.4,2.39,2.32.73.94,1.36,1.96,1.85,3.08.48,1.1.77,2.25.79,3.46.02,1.18-.19,2.22-.56,3.16-.37.95-.89,1.76-1.55,2.46-.67.7-1.47,1.27-2.41,1.68-.67.29-1.39.48-2.16.57v2.41h-1.94v-2.4c-.82-.08-1.57-.26-2.26-.54-.95-.39-1.75-.93-2.41-1.61-.66-.68-1.16-1.48-1.52-2.43-.35-.94-.55-2-.53-3.21.01-1.2.27-2.33.73-3.4.47-1.09,1.07-2.08,1.77-3,.69-.91,1.45-1.72,2.31-2.34.59-.43,1.23-.75,1.9-.91v-2.77Z"/>
  <path class="cls-1" d="m161,132.3c.03-.44.13-.77.3-1s.42-.34.72-.34c.27,0,.49.1.66.29.17.19.26.46.26.8,0,.04,0,.08,0,.12,0,.04,0,.08-.01.12-.32,0-.61,0-.86.01-.26,0-.48,0-.68,0h-.38Zm-.02.33c.17,0,.33,0,.5-.01.17,0,.34,0,.52,0,.27,0,.55,0,.84,0,.29,0,.58.01.88.02,0-.04,0-.08,0-.12v-.12c0-.55-.15-.99-.44-1.29-.3-.31-.71-.46-1.24-.46-.28,0-.54.05-.77.15-.23.1-.42.24-.58.42-.16.18-.28.4-.37.65-.09.26-.13.54-.13.86,0,.61.17,1.09.5,1.44.34.35.81.52,1.41.52.54,0,1.01-.12,1.41-.37.01-.09.02-.17.03-.25,0-.07.02-.15.04-.22l-.1-.02c-.12.16-.28.29-.48.38-.2.09-.43.14-.68.14-.42,0-.74-.14-.97-.42-.23-.28-.34-.69-.34-1.22v-.07Z"/>
  <rect class="cls-1" x="164.41" y="132.29" width="1.93" height=".69"/>
  <path class="cls-1" d="m167.23,134.58c.06-.01.13-.02.19-.03.06,0,.12-.01.19-.01s.13,0,.2.01c.07,0,.13.02.2.03-.01-.29-.02-.59-.03-.9,0-.3-.01-.62-.01-.94,0-.54.07-.94.22-1.2.15-.26.4-.4.75-.4.28,0,.5.1.66.3.09.11.14.24.16.39.02.15.03.34.03.55v.4c0,.26,0,.53-.02.82-.01.29-.02.61-.04.96.06-.01.13-.02.19-.03.06,0,.13-.01.19-.01s.13,0,.19.01c.06,0,.13.02.19.03-.01-.3-.02-.61-.03-.91,0-.3-.01-.61-.01-.92,0-.54.08-.94.23-1.2.15-.26.4-.4.76-.4s.62.17.76.5c.04.09.06.22.06.4,0,.17,0,.4,0,.67s0,.58-.02.89c-.01.31-.02.63-.04.98.06-.01.13-.02.19-.03.06,0,.13-.01.19-.01.07,0,.13,0,.2.01.06,0,.13.02.2.03-.02-.26-.03-.5-.03-.73,0-.22,0-.43,0-.62v-1.18c0-.2-.01-.38-.03-.54-.02-.15-.1-.31-.22-.46-.11-.13-.24-.23-.41-.3-.17-.07-.35-.11-.55-.11-.29,0-.54.06-.76.18-.22.12-.42.31-.6.56-.13-.49-.48-.74-1.05-.74s-1.04.26-1.37.78c0-.12,0-.24.01-.35,0-.11,0-.22.01-.34-.06.01-.13.02-.19.02-.06,0-.13,0-.18,0-.06,0-.13,0-.19,0-.06,0-.13-.01-.19-.02.03.25.04.49.05.75,0,.25,0,.51,0,.78,0,.52,0,.97,0,1.35,0,.38-.02.7-.05.96"/>
  <path class="cls-1" d="m176.09,134.08c.03.19.08.32.17.41.08.09.21.13.37.13.11,0,.22-.02.34-.05.12-.03.25-.08.39-.15v-.17c-.07,0-.12,0-.16,0-.04,0-.06,0-.07,0-.15,0-.25-.03-.29-.1-.04-.07-.06-.19-.06-.35v-1.9c0-.44-.1-.77-.31-.97-.21-.2-.56-.3-1.06-.3s-.95.16-1.29.47l-.04.43.17.06c.08-.2.2-.36.37-.47.17-.11.36-.16.59-.16.28,0,.5.08.66.24.16.16.24.38.24.67,0,.13-.02.22-.07.28-.05.06-.13.1-.24.13l-.73.16c-.22.05-.42.1-.58.16-.16.06-.3.13-.41.22-.11.09-.19.2-.24.33-.05.13-.08.29-.08.48,0,.31.1.56.3.76.2.19.47.29.8.29.47,0,.88-.2,1.21-.6m0-1.53v.74c0,.29-.09.52-.25.68-.17.16-.39.24-.65.24-.2,0-.35-.06-.47-.19-.12-.13-.17-.3-.17-.52,0-.23.09-.42.26-.55.17-.13.44-.23.81-.3l.48-.1Z"/>
  <path class="cls-1" d="m177.86,129.39c0,.13.04.23.13.31.09.08.2.12.35.12.13,0,.24-.04.32-.12.08-.08.12-.18.12-.31,0-.14-.04-.26-.12-.34-.08-.08-.2-.12-.34-.12-.13,0-.24.04-.32.13-.08.09-.12.19-.12.32m.02,5.18c.07-.01.13-.02.2-.03.06,0,.13-.01.2-.01.12,0,.26.01.4.04-.02-.3-.04-.66-.04-1.06,0-.4-.01-.85-.01-1.36,0-.23,0-.46,0-.7,0-.23.02-.47.05-.72-.12.02-.26.03-.4.03s-.27-.01-.4-.03c.03.22.04.46.05.71,0,.25,0,.52,0,.81,0,.54,0,1-.01,1.38,0,.38-.02.69-.04.93Z"/>
  <path class="cls-1" d="m179.92,134.58c.07-.01.13-.02.2-.03.06,0,.13-.01.2-.01.12,0,.25.01.4.04-.02-.23-.04-.68-.04-1.36,0-.68-.01-1.6-.01-2.75v-.4c0-.27,0-.52,0-.77,0-.25.02-.49.05-.72-.07.01-.14.02-.2.02-.07,0-.13,0-.19,0-.14,0-.27-.01-.4-.03.02.2.03.41.04.62,0,.21,0,.43,0,.66v.7c0,.67,0,1.27,0,1.82,0,.55,0,1.05,0,1.5,0,.04,0,.11,0,.23,0,.11-.01.27-.02.46"/>
  <path class="cls-1" d="m182.12,134.18c0,.14.05.27.15.36.1.1.22.15.36.15s.27-.05.36-.15c.1-.1.15-.22.15-.36s-.05-.26-.15-.36c-.1-.1-.22-.14-.36-.14s-.27.05-.36.15c-.1.1-.15.22-.15.36m0-2.82c0,.14.05.27.15.36.1.1.22.15.36.15s.27-.05.36-.15c.1-.1.15-.22.15-.36s-.05-.26-.15-.36c-.1-.1-.22-.14-.36-.14s-.26.05-.36.15c-.1.1-.14.22-.14.36Z"/>
  <path class="cls-1" d="m186.66,129.39c0,.13.04.23.13.31.09.08.2.12.35.12.13,0,.24-.04.32-.12.08-.08.12-.18.12-.31,0-.14-.04-.26-.12-.34-.08-.08-.2-.12-.34-.12-.13,0-.24.04-.32.13-.08.09-.12.19-.12.32m.02,5.18c.07-.01.13-.02.2-.03.06,0,.13-.01.2-.01.12,0,.26.01.4.04-.02-.3-.04-.66-.04-1.06,0-.4-.01-.85-.01-1.36,0-.23,0-.46,0-.7,0-.23.02-.47.05-.72-.12.02-.26.03-.4.03s-.27-.01-.4-.03c.03.22.04.46.05.71,0,.25,0,.52,0,.81,0,.54,0,1-.01,1.38,0,.38-.02.69-.04.93Z"/>
  <path class="cls-1" d="m188.65,134.58c.07-.01.13-.02.2-.03.06,0,.13-.01.2-.01.06,0,.13,0,.19.01.07,0,.13.02.19.03-.01-.3-.02-.61-.03-.91,0-.3-.01-.61-.01-.92,0-.54.08-.94.23-1.2.15-.26.41-.4.77-.4.29,0,.52.1.68.3.09.11.14.24.16.39.02.15.03.33.03.54v.41c0,.25,0,.52-.02.82-.01.3-.02.62-.04.97.07-.01.14-.02.2-.03.06,0,.13-.01.2-.01.06,0,.13,0,.2.01.07,0,.13.02.2.03-.02-.26-.03-.5-.03-.73,0-.22,0-.43,0-.62v-1.18c0-.2-.01-.39-.03-.55-.02-.16-.09-.32-.22-.46-.11-.12-.24-.22-.41-.29-.17-.07-.35-.11-.56-.11-.59,0-1.05.26-1.37.78,0-.12,0-.24.01-.35,0-.11,0-.22.01-.34-.06.01-.13.02-.19.02-.06,0-.12,0-.18,0-.06,0-.13,0-.19,0-.06,0-.13-.01-.19-.02.03.25.04.49.05.75,0,.25,0,.51,0,.78,0,.52,0,.97,0,1.35,0,.38-.02.7-.05.96"/>
  <path class="cls-1" d="m193.21,134.58c.15-.03.29-.04.41-.04s.26.01.41.04c-.03-.62-.05-1.34-.05-2.15v-1.35h.11c.12,0,.25,0,.38.02.13.01.26.02.38.04-.02-.06-.03-.12-.03-.19s.01-.13.03-.19c-.12.01-.24.02-.35.02-.11,0-.22,0-.33,0h-.19l-.08-.58c-.01-.07-.02-.14-.02-.21,0-.06,0-.12,0-.16,0-.42.19-.63.57-.63.16,0,.34.04.54.13.01-.12.02-.24.04-.36.02-.12.04-.23.06-.34-.12-.03-.24-.05-.35-.05-.15,0-.32.05-.48.16-.17.1-.32.25-.46.44-.14.19-.26.42-.35.69-.1.27-.15.58-.16.91h-.16c-.09,0-.18,0-.26,0-.08,0-.17-.01-.25-.02.02.06.02.12.02.18s0,.13-.02.2c.1-.02.2-.03.3-.04.1-.01.19-.02.28-.02h.09v1.59c0,.34,0,.67,0,.99,0,.32-.02.63-.06.92"/>
  <path class="cls-1" d="m198.21,132.67c0,.55-.1.97-.3,1.27-.2.3-.48.44-.83.44s-.63-.15-.84-.44c-.21-.3-.31-.72-.31-1.27s.1-.98.31-1.28c.21-.3.49-.44.84-.44s.63.15.83.44c.2.29.3.72.3,1.28m.82,0c0-.31-.05-.59-.14-.84-.09-.25-.22-.46-.39-.64-.17-.17-.38-.31-.62-.4-.24-.09-.52-.14-.82-.14s-.57.05-.81.14c-.24.1-.45.23-.62.41-.17.18-.3.39-.4.64-.09.25-.14.52-.14.83,0,.63.17,1.12.52,1.48.35.35.83.53,1.44.53.3,0,.57-.05.81-.14.24-.09.45-.23.62-.4.17-.18.3-.39.4-.64.09-.25.14-.52.14-.83Z"/>
  <path class="cls-1" d="m204.35,131.31c-.17-.43-.5-.64-.99-.64-.25,0-.49.05-.71.16-.22.11-.41.26-.58.45-.16.19-.29.41-.39.68-.1.26-.14.54-.14.85,0,.42.1.73.31.95.21.22.51.33.91.33.24,0,.46-.06.66-.18.2-.12.36-.29.5-.52,0,.02,0,.04,0,.06,0,.02,0,.04,0,.05,0,.39.25.59.75.59.44,0,.84-.14,1.21-.43.31-.25.55-.55.71-.9.16-.36.24-.76.24-1.22,0-.39-.09-.76-.26-1.09-.17-.33-.42-.63-.76-.89-.26-.2-.58-.36-.96-.48-.38-.12-.78-.18-1.22-.18-1.02,0-1.88.29-2.58.86-.43.36-.76.77-.98,1.23-.22.46-.34.96-.34,1.49s.1,1.01.29,1.41c.19.4.49.76.9,1.07.62.48,1.43.72,2.43.72.93,0,1.78-.29,2.55-.86l-.15-.22c-.35.24-.74.43-1.16.56-.42.13-.86.2-1.32.2-.42,0-.82-.06-1.18-.18-.37-.12-.68-.29-.94-.5-.33-.27-.57-.57-.72-.91-.15-.34-.23-.73-.23-1.19,0-1.04.39-1.89,1.16-2.55.6-.52,1.36-.78,2.27-.78.42,0,.79.06,1.13.17.34.11.63.27.87.48.24.2.43.44.56.72.13.28.2.58.2.9,0,.42-.07.79-.21,1.12-.14.33-.34.59-.59.79-.14.11-.28.19-.42.24-.14.05-.28.08-.4.08s-.24-.03-.31-.1c-.07-.06-.11-.15-.11-.26,0-.04,0-.08.02-.14.01-.06.03-.13.05-.22l.54-2.19h-.37l-.23.49Zm-.34,1.43c-.07.31-.22.56-.44.74-.22.18-.46.28-.74.28-.26,0-.45-.08-.6-.24-.14-.16-.21-.39-.21-.68,0-.26.03-.5.1-.73.07-.22.16-.42.28-.58.12-.17.27-.29.44-.39.17-.09.36-.14.56-.14.21,0,.39.07.54.2.15.14.25.33.3.57l-.24.97Z"/>
  <path class="cls-1" d="m210.63,132.67c0,.55-.1.97-.3,1.27-.2.3-.48.44-.83.44s-.63-.15-.84-.44c-.21-.3-.31-.72-.31-1.27s.1-.98.31-1.28c.21-.3.49-.44.84-.44s.63.15.83.44c.2.29.3.72.3,1.28m.82,0c0-.31-.05-.59-.14-.84-.09-.25-.22-.46-.39-.64-.17-.17-.38-.31-.62-.4-.24-.09-.52-.14-.82-.14s-.57.05-.81.14c-.24.1-.45.23-.62.41-.17.18-.3.39-.4.64-.09.25-.14.52-.14.83,0,.63.17,1.12.52,1.48.35.35.83.53,1.44.53.3,0,.57-.05.81-.14.24-.09.45-.23.62-.4.17-.18.3-.39.4-.64.09-.25.14-.52.14-.83Z"/>
  <path class="cls-1" d="m212.29,134.58c.07-.01.13-.02.2-.03.06,0,.13-.01.2-.01.12,0,.25.01.4.04-.02-.23-.04-.68-.04-1.36,0-.68-.01-1.6-.01-2.75v-.4c0-.27,0-.52,0-.77,0-.25.02-.49.05-.72-.07.01-.14.02-.2.02-.07,0-.13,0-.19,0-.14,0-.27-.01-.4-.03.02.2.03.41.04.62,0,.21,0,.43,0,.66v.7c0,.67,0,1.27,0,1.82,0,.55,0,1.05,0,1.5,0,.04,0,.11,0,.23,0,.11-.01.27-.02.46"/>
  <path class="cls-1" d="m214.24,129.39c0,.13.04.23.13.31.09.08.2.12.35.12.13,0,.24-.04.32-.12.08-.08.12-.18.12-.31,0-.14-.04-.26-.12-.34-.08-.08-.2-.12-.34-.12-.13,0-.24.04-.32.13-.08.09-.12.19-.12.32m.02,5.18c.07-.01.13-.02.2-.03.06,0,.13-.01.2-.01.12,0,.26.01.4.04-.02-.3-.04-.66-.04-1.06,0-.4-.01-.85-.01-1.36,0-.23,0-.46,0-.7,0-.23.02-.47.05-.72-.12.02-.26.03-.4.03s-.27-.01-.4-.03c.03.22.04.46.05.71,0,.25,0,.52,0,.81,0,.54,0,1-.01,1.38,0,.38-.02.69-.04.93Z"/>
  <path class="cls-1" d="m217.29,134.58c.1-.03.19-.05.29-.05.1,0,.2.02.3.05.25-.67.51-1.33.78-1.96.27-.64.57-1.26.9-1.87-.06.01-.12.02-.17.02-.06,0-.11,0-.17,0-.12,0-.24-.01-.34-.03-.13.46-.26.89-.41,1.27l-.66,1.78-.62-1.58c-.08-.21-.16-.43-.24-.68-.08-.24-.16-.51-.25-.8-.08.01-.16.02-.24.02-.08,0-.16,0-.25,0-.08,0-.16,0-.24,0-.08,0-.17-.01-.26-.02.45.96.81,1.76,1.07,2.39.26.63.43,1.11.52,1.44"/>
  <path class="cls-1" d="m220.06,134.58c.07-.01.13-.02.2-.03.06,0,.13-.01.2-.01.12,0,.26.01.4.04-.03-.44-.05-.82-.05-1.15v-.83c0-.18.01-.34.04-.5.03-.16.11-.32.25-.47.07-.09.17-.15.28-.2.11-.05.23-.07.35-.07.06,0,.14,0,.23.02.09.02.19.04.31.06-.01-.07-.02-.14-.02-.2,0-.06,0-.13,0-.19s0-.13,0-.19c0-.06.01-.13.02-.18-.03,0-.06,0-.1,0h-.09c-.53,0-.95.3-1.26.9v-.1c0-.11,0-.22.02-.34.01-.12.03-.24.05-.37-.07.01-.14.02-.21.02-.07,0-.14,0-.21,0-.07,0-.14,0-.21,0-.07,0-.14-.01-.21-.02.03.24.05.47.06.68,0,.21,0,.42,0,.62,0,.65,0,1.18-.01,1.6,0,.42-.03.73-.05.94"/>
  <path class="cls-1" d="m224.94,134.08c.03.19.08.32.17.41.08.09.21.13.37.13.11,0,.22-.02.34-.05.12-.03.25-.08.39-.15v-.17c-.07,0-.12,0-.16,0-.04,0-.06,0-.07,0-.15,0-.25-.03-.29-.1-.04-.07-.06-.19-.06-.35v-1.9c0-.44-.1-.77-.31-.97-.21-.2-.56-.3-1.06-.3s-.95.16-1.29.47l-.04.43.17.06c.08-.2.2-.36.37-.47.17-.11.36-.16.59-.16.28,0,.5.08.66.24.16.16.24.38.24.67,0,.13-.02.22-.07.28s-.13.1-.24.13l-.73.16c-.22.05-.42.1-.58.16-.16.06-.3.13-.41.22-.11.09-.19.2-.24.33-.05.13-.08.29-.08.48,0,.31.1.56.3.76.2.19.47.29.8.29.47,0,.88-.2,1.21-.6m0-1.53v.74c0,.29-.09.52-.25.68-.17.16-.39.24-.65.24-.2,0-.35-.06-.47-.19-.12-.13-.17-.3-.17-.52,0-.23.09-.42.26-.55.17-.13.44-.23.81-.3l.48-.1Z"/>
  <path class="cls-1" d="m226.75,134.17c0,.14.05.27.15.36.1.1.22.15.36.15s.27-.05.36-.15c.1-.1.15-.22.15-.36s-.05-.26-.15-.36c-.1-.1-.22-.14-.36-.14s-.27.05-.36.15c-.1.1-.15.22-.15.36"/>
  <path class="cls-1" d="m229.43,132.3c.03-.44.13-.77.3-1s.42-.34.72-.34c.27,0,.49.1.66.29.17.19.26.46.26.8,0,.04,0,.08,0,.12,0,.04,0,.08-.01.12-.32,0-.61,0-.86.01-.26,0-.48,0-.68,0h-.38Zm-.02.33c.17,0,.33,0,.5-.01.17,0,.34,0,.52,0,.27,0,.55,0,.84,0,.29,0,.58.01.88.02,0-.04,0-.08,0-.12v-.12c0-.55-.15-.99-.44-1.29-.3-.31-.71-.46-1.24-.46-.28,0-.54.05-.77.15-.23.1-.42.24-.58.42-.16.18-.28.4-.37.65-.09.26-.13.54-.13.86,0,.61.17,1.09.5,1.44.34.35.81.52,1.41.52.54,0,1.01-.12,1.41-.37.01-.09.02-.17.03-.25,0-.07.02-.15.04-.22l-.1-.02c-.12.16-.28.29-.48.38-.2.09-.43.14-.68.14-.42,0-.74-.14-.97-.42-.23-.28-.34-.69-.34-1.22v-.07Z"/>
  <path class="cls-1" d="m236.22,130.75c-.06.01-.13.02-.2.02-.07,0-.13,0-.2,0-.14,0-.27-.01-.39-.03.01.3.02.6.03.9,0,.3.01.61.01.93,0,.54-.08.94-.23,1.2-.15.26-.42.4-.79.4-.31,0-.53-.09-.66-.26-.14-.17-.21-.43-.21-.79,0-.2,0-.5.02-.9.01-.39.03-.89.06-1.49-.06.01-.13.02-.19.02-.07,0-.13,0-.2,0-.14,0-.27-.01-.4-.03.02.26.03.5.03.73,0,.22,0,.43,0,.62v1.14c0,.49.1.85.3,1.09.2.24.53.36.98.36.29,0,.54-.06.74-.19.21-.13.4-.32.57-.6,0,.12-.01.24-.02.36,0,.11-.01.23-.02.33.06-.01.13-.02.19-.03.06,0,.13-.01.19-.01.06,0,.12,0,.18.01.06,0,.13.02.19.03-.03-.25-.04-.49-.05-.75,0-.25,0-.51,0-.78,0-.52,0-.97,0-1.35,0-.38.02-.7.05-.96"/>
  <path class="cls-1" d="m161.36,144.47c.05-.01.1-.02.15-.03.05,0,.1-.01.15-.01.09,0,.19.01.3.04.16-.53.32-1.03.49-1.51.17-.48.34-.94.51-1.39l.54,1.5c.07.19.15.41.22.64.07.23.15.49.22.77.05-.01.09-.02.14-.03.05,0,.09-.01.14-.01.08,0,.17.01.28.04.37-.99.69-1.81.96-2.44.26-.63.47-1.1.63-1.39-.05.01-.11.02-.16.02-.05,0-.11,0-.16,0-.12,0-.22-.01-.31-.03-.07.26-.14.51-.21.74-.07.23-.14.46-.22.66l-.59,1.62-.55-1.66c-.08-.25-.16-.48-.23-.7-.07-.22-.13-.44-.17-.66-.05.01-.11.02-.16.02-.05,0-.11,0-.16,0-.12,0-.23-.01-.33-.03-.15.52-.31,1.02-.47,1.52-.17.5-.34.99-.52,1.48l-.53-1.47c-.22-.6-.36-1.11-.43-1.53-.07.01-.15.02-.23.02-.08,0-.16,0-.24,0-.07,0-.15,0-.23,0-.08,0-.16-.01-.24-.02.53,1.29,1.01,2.56,1.42,3.83"/>
  <path class="cls-1" d="m167.49,144.47c.05-.01.1-.02.15-.03.05,0,.1-.01.15-.01.09,0,.19.01.3.04.16-.53.32-1.03.49-1.51.17-.48.34-.94.51-1.39l.54,1.5c.07.19.15.41.22.64.07.23.15.49.22.77.05-.01.09-.02.14-.03.05,0,.09-.01.14-.01.08,0,.17.01.28.04.37-.99.69-1.81.96-2.44.26-.63.47-1.1.63-1.39-.05.01-.11.02-.16.02-.05,0-.11,0-.16,0-.12,0-.22-.01-.31-.03-.07.26-.14.51-.21.74-.07.23-.14.46-.22.66l-.59,1.62-.55-1.66c-.08-.25-.16-.48-.23-.7-.07-.22-.13-.44-.17-.66-.05.01-.11.02-.16.02-.05,0-.11,0-.16,0-.12,0-.23-.01-.33-.03-.15.52-.31,1.02-.47,1.52-.17.5-.34.99-.52,1.48l-.53-1.47c-.22-.6-.36-1.11-.43-1.53-.07.01-.15.02-.23.02-.08,0-.16,0-.24,0-.07,0-.15,0-.23,0-.08,0-.16-.01-.24-.02.53,1.29,1.01,2.56,1.42,3.83"/>
  <path class="cls-1" d="m173.62,144.47c.05-.01.1-.02.15-.03.05,0,.1-.01.15-.01.09,0,.19.01.3.04.16-.53.32-1.03.49-1.51.17-.48.34-.94.51-1.39l.54,1.5c.07.19.15.41.22.64.07.23.15.49.22.77.05-.01.09-.02.14-.03.05,0,.09-.01.14-.01.08,0,.17.01.28.04.37-.99.69-1.81.96-2.44.26-.63.47-1.1.63-1.39-.05.01-.11.02-.16.02-.05,0-.11,0-.16,0-.12,0-.22-.01-.31-.03-.07.26-.14.51-.21.74-.07.23-.14.46-.22.66l-.59,1.62-.55-1.66c-.08-.25-.16-.48-.23-.7-.07-.22-.13-.44-.17-.66-.05.01-.11.02-.16.02-.05,0-.11,0-.16,0-.12,0-.23-.01-.33-.03-.15.52-.31,1.02-.47,1.52-.17.5-.34.99-.52,1.48l-.53-1.47c-.22-.6-.36-1.11-.43-1.53-.07.01-.15.02-.23.02-.08,0-.16,0-.24,0-.07,0-.15,0-.23,0-.08,0-.16-.01-.24-.02.53,1.29,1.01,2.56,1.42,3.83"/>
  <path class="cls-1" d="m178.44,144.06c0,.14.05.27.15.36.1.1.22.15.36.15s.27-.05.36-.15c.1-.1.15-.22.15-.36s-.05-.26-.15-.36c-.1-.1-.22-.14-.36-.14s-.27.05-.36.15c-.1.1-.15.22-.15.36"/>
  <path class="cls-1" d="m183.4,142.55c0,.55-.1.97-.3,1.27-.2.3-.48.44-.83.44s-.63-.15-.84-.44c-.21-.3-.31-.72-.31-1.27s.1-.98.31-1.28c.21-.3.49-.44.84-.44s.63.15.83.44c.2.29.3.72.3,1.28m.82,0c0-.31-.05-.59-.14-.84-.09-.25-.22-.46-.39-.64-.17-.17-.38-.31-.62-.4-.24-.09-.52-.14-.82-.14s-.57.05-.81.14-.45.23-.62.41c-.17.18-.3.39-.4.64-.09.25-.14.52-.14.83,0,.63.17,1.12.52,1.48.35.35.83.53,1.44.53.3,0,.57-.05.81-.14.24-.09.45-.23.62-.4.17-.18.3-.39.4-.64.09-.25.14-.52.14-.83Z"/>
  <path class="cls-1" d="m185.07,144.47c.07-.01.13-.02.2-.03.06,0,.13-.01.2-.01.12,0,.25.01.4.04-.02-.23-.04-.68-.04-1.36,0-.68-.01-1.6-.01-2.75v-.4c0-.27,0-.52,0-.77,0-.25.02-.49.05-.72-.07.01-.14.02-.2.02-.07,0-.13,0-.19,0-.14,0-.27-.01-.4-.03.02.2.03.41.04.62,0,.21,0,.43,0,.66v.7c0,.67,0,1.27,0,1.82,0,.55,0,1.05,0,1.5,0,.04,0,.11,0,.23,0,.11-.01.27-.02.46"/>
  <path class="cls-1" d="m187.01,139.28c0,.13.04.23.13.31.09.08.2.12.35.12.13,0,.24-.04.32-.12.08-.08.12-.18.12-.31,0-.14-.04-.26-.12-.34-.08-.08-.2-.12-.34-.12-.13,0-.24.04-.32.13-.08.09-.12.19-.12.32m.02,5.18c.07-.01.13-.02.2-.03.06,0,.13-.01.2-.01.12,0,.26.01.4.04-.02-.3-.04-.66-.04-1.06,0-.4-.01-.85-.01-1.36,0-.23,0-.46,0-.7,0-.23.02-.47.05-.72-.12.02-.26.03-.4.03s-.27-.01-.4-.03c.03.22.04.46.05.71,0,.25,0,.52,0,.81,0,.54,0,1-.01,1.38,0,.38-.02.69-.04.93Z"/>
  <path class="cls-1" d="m190.06,144.47c.1-.03.19-.05.29-.05.1,0,.2.02.3.05.25-.67.51-1.33.78-1.96.27-.64.57-1.26.9-1.87-.06.01-.12.02-.17.02-.06,0-.11,0-.17,0-.12,0-.24-.01-.34-.03-.13.46-.26.89-.41,1.27l-.66,1.78-.62-1.58c-.08-.21-.16-.43-.24-.68-.08-.24-.16-.51-.25-.8-.08.01-.16.02-.24.02-.08,0-.16,0-.25,0-.08,0-.16,0-.24,0-.08,0-.17-.01-.26-.02.45.96.81,1.76,1.07,2.39.26.63.43,1.11.52,1.44"/>
  <path class="cls-1" d="m192.84,144.47c.07-.01.13-.02.2-.03.06,0,.13-.01.2-.01.12,0,.26.01.4.04-.03-.44-.05-.82-.05-1.15v-.83c0-.18.01-.34.04-.5.03-.16.11-.32.25-.47.07-.09.17-.15.28-.2.11-.05.23-.07.35-.07.06,0,.14,0,.23.02.09.02.19.04.31.06-.01-.07-.02-.14-.02-.2,0-.06,0-.13,0-.19s0-.13,0-.19c0-.06.01-.13.02-.18-.03,0-.06,0-.1,0h-.09c-.53,0-.95.3-1.26.9v-.1c0-.11,0-.22.02-.34.01-.12.03-.24.05-.37-.07.01-.14.02-.21.02-.07,0-.14,0-.21,0-.07,0-.14,0-.21,0-.07,0-.14-.01-.21-.02.03.24.05.47.06.68,0,.21,0,.42,0,.62,0,.65,0,1.18-.01,1.6,0,.42-.03.73-.05.94"/>
  <path class="cls-1" d="m197.72,143.97c.03.19.08.32.17.41.08.09.21.13.37.13.11,0,.22-.02.34-.05.12-.03.25-.08.39-.15v-.17c-.07,0-.12,0-.16,0-.04,0-.06,0-.07,0-.15,0-.25-.03-.29-.1-.04-.07-.06-.19-.06-.35v-1.9c0-.44-.1-.77-.31-.97-.21-.2-.56-.3-1.06-.3s-.95.16-1.29.47l-.04.43.17.06c.08-.2.2-.36.37-.47.17-.11.36-.16.59-.16.28,0,.5.08.66.24.16.16.24.38.24.67,0,.13-.02.22-.07.28-.05.06-.13.1-.24.13l-.73.16c-.22.05-.42.1-.58.16-.16.06-.3.13-.41.22-.11.09-.19.2-.24.33-.05.13-.08.29-.08.48,0,.31.1.56.3.76.2.19.47.29.8.29.47,0,.88-.2,1.21-.6m0-1.53v.74c0,.29-.09.52-.25.68-.17.16-.39.24-.65.24-.2,0-.35-.06-.47-.19-.12-.13-.17-.3-.17-.52,0-.23.09-.42.26-.55.17-.13.44-.23.81-.3l.48-.1Z"/>
  <path class="cls-1" d="m199.52,144.06c0,.14.05.27.15.36.1.1.22.15.36.15s.27-.05.36-.15c.1-.1.15-.22.15-.36s-.05-.26-.15-.36c-.1-.1-.22-.14-.36-.14s-.27.05-.36.15c-.1.1-.15.22-.15.36"/>
  <path class="cls-1" d="m202.2,142.19c.03-.44.13-.77.3-1s.42-.34.72-.34c.27,0,.49.1.66.29.17.19.26.46.26.8,0,.04,0,.08,0,.12,0,.04,0,.08-.01.12-.32,0-.61,0-.86.01-.26,0-.48,0-.68,0h-.38Zm-.02.33c.17,0,.33,0,.5-.01.17,0,.34,0,.52,0,.27,0,.55,0,.84,0,.29,0,.58.01.88.02,0-.04,0-.08,0-.12v-.12c0-.55-.15-.99-.44-1.29-.3-.31-.71-.46-1.24-.46-.28,0-.54.05-.77.15-.23.1-.42.24-.58.42-.16.18-.28.4-.37.65-.09.26-.13.54-.13.86,0,.61.17,1.09.5,1.44.34.35.81.52,1.41.52.54,0,1.01-.12,1.41-.37.01-.09.02-.17.03-.25,0-.07.02-.15.04-.22l-.1-.02c-.12.16-.28.29-.48.38-.2.09-.43.14-.68.14-.42,0-.74-.14-.97-.42-.23-.28-.34-.69-.34-1.22v-.07Z"/>
  <path class="cls-1" d="m209,140.63c-.06.01-.13.02-.2.02-.07,0-.13,0-.2,0-.14,0-.27-.01-.39-.03.01.3.02.6.03.9,0,.3.01.61.01.93,0,.54-.08.94-.23,1.2-.15.26-.42.4-.79.4-.31,0-.53-.09-.66-.26-.14-.17-.21-.43-.21-.79,0-.2,0-.5.02-.9.01-.39.03-.89.06-1.49-.06.01-.13.02-.19.02-.07,0-.13,0-.2,0-.14,0-.27-.01-.4-.03.02.26.03.5.03.73,0,.22,0,.43,0,.62v1.14c0,.49.1.85.3,1.09.2.24.53.36.98.36.29,0,.54-.06.74-.19.21-.13.4-.32.57-.6,0,.12-.01.24-.02.36,0,.11-.01.23-.02.33.06-.01.13-.02.19-.03.06,0,.13-.01.19-.01.06,0,.12,0,.18.01.06,0,.13.02.19.03-.03-.25-.04-.49-.05-.75,0-.25,0-.51,0-.78,0-.52,0-.97,0-1.35,0-.38.02-.7.05-.96"/>
  <line class="cls-3" x1="136.59" y1="31.84" x2="136.59" y2="144.59"/>
  <path class="cls-2" d="m76.45,119.06h-1.26s0,1.26,0,1.26h-1.26s0,2.51,0,2.51h1.26s0,1.26,0,1.26h2.51s0,1.25,0,1.25h1.25v5.02s1.25,0,1.25,0v-1.25s2.51,0,2.51,0v-2.51s-1.25,0-1.25,0v-1.26s3.77,0,3.77,0v1.26s-1.26,0-1.26,0v2.51h1.25v1.25s1.25,0,1.25,0v-1.26s2.51,0,2.51,0v-1.25s-1.26,0-1.26,0v-2.51s-1.26,0-1.26,0v-1.26s1.26,0,1.26,0v-2.51s-1.26,0-1.26,0v-2.51s-1.26,0-1.26,0v-1.25h-1.26v-2.51h1.26s0-1.25,0-1.25h-1.26s0-1.26,0-1.26h1.26v-1.25s-1.26,0-1.26,0v-2.51s-2.51,0-2.51,0v1.25s1.25,0,1.25,0v1.25s-2.51,0-2.51,0v-1.26h-1.25s0,2.51,0,2.51h1.25s0,2.51,0,2.51h-3.76s0,3.77,0,3.77Zm5.02-6.28h1.26s0,1.26,0,1.26h-.14s-1.12,0-1.12,0v-1.25Zm0,2.51h1.26v1.26h-1.26s0-.42,0-.42v-.84Zm-2.51,2.51h-1.25s0-1.26,0-1.26h1.26s0,1.26,0,1.26Zm2.51,0h1.26s0,1.26,0,1.26h-1.26s0-.7,0-.7v-.56Zm-5.02,1.26h2.51s0-1.26,0-1.26h1.25s0,3.76,0,3.76h-1.25s0-1.25,0-1.25h-2.51s0-1.26,0-1.26Zm1.26,3.77h-1.26v-1.26h1.26v1.26Zm0,0h2.51s0,1.26,0,1.26h-2.51s0-1.26,0-1.26Zm3.76-2.51h3.77s0,3.77,0,3.77h-3.77s0-3.77,0-3.77Zm3.77,6.28h1.26s0,1.25,0,1.25h-1.26s0-1.25,0-1.25Z"/>
  <path class="cls-2" d="m60.14,130.36h.69s8.09,0,8.09,0v-8.78s-8.23,0-8.23,0h-.55s0,8.79,0,8.79Zm1.26-7.53h6.27s0,5.16,0,5.16v.42s0,.7,0,.7h-6.27s0-6.28,0-6.28Z"/>
  <path class="cls-2" d="m82.74,99.4v8.36s.55,0,.55,0h8.23v-8.79s-8.78,0-8.78,0v.42Zm1.26.84h6.28s0,6.28,0,6.28h-6.27s0-6.28,0-6.28Z"/>
  <path class="cls-2" d="m60.15,107.76h8.78s0-8.78,0-8.78h-8.78v8.78Zm1.26-7.52h6.27s0,6.27,0,6.27h-6.28s0-6.27,0-6.27Z"/>
  <polygon class="cls-2" points="68.92 117.81 68.92 119.06 67.67 119.06 67.67 119.2 67.67 120.32 70.18 120.32 70.18 125.34 71.43 125.34 71.43 122.83 72.69 122.83 72.69 121.57 72.55 121.57 71.43 121.57 71.43 120.32 73.94 120.32 73.94 119.06 72.69 119.06 72.69 116.55 71.43 116.55 71.43 114.04 70.18 114.04 70.18 117.81 68.92 117.81"/>
  <path class="cls-2" d="m72.69,111.53v1.26s-1.25,0-1.25,0v1.26h1.25s0,2.51,0,2.51h2.51s0-2.51,0-2.51h2.51s0-5.02,0-5.02h-2.51s0,1.25,0,1.25h-1.25s0,1.26,0,1.26h-1.26Zm2.51,2.51h-1.26s0-1.26,0-1.26h1.26v1.26Z"/>
  <polygon class="cls-2" points="77.71 102.75 78.97 102.75 78.96 106.51 80.22 106.51 80.22 109.02 81.47 109.02 81.47 105.26 80.22 105.26 80.22 101.49 81.47 101.49 81.47 98.98 77.71 98.98 77.71 99.12 77.71 102.75"/>
  <polygon class="cls-2" points="65.16 110.28 68.92 110.28 68.92 111.53 70.04 111.53 70.18 111.53 70.18 112.79 71.43 112.79 71.43 111.53 72.69 111.53 72.69 110.28 71.43 110.28 71.43 106.51 70.18 106.51 70.18 109.02 65.16 109.02 65.16 110.28"/>
  <polygon class="cls-2" points="75.2 129.1 75.2 127.85 72.69 127.85 72.69 125.34 71.43 125.34 71.43 126.59 70.18 126.59 70.18 130.36 73.94 130.36 73.94 129.1 75.2 129.1"/>
  <rect class="cls-1" x="62.65" y="124.08" width="3.77" height="3.76"/>
  <polygon class="cls-2" points="85.24 104.84 85.24 105.26 86.22 105.26 86.63 105.25 89 105.26 89 101.49 85.24 101.49 85.24 104.84"/>
  <polygon class="cls-2" points="62.65 105.25 66.41 105.26 66.41 101.49 65.72 101.49 62.65 101.49 62.65 105.25"/>
  <polygon class="cls-2" points="67.67 114.04 67.67 112.79 68.92 112.79 68.92 111.53 65.16 111.53 65.16 110.28 63.9 110.28 63.9 111.53 62.65 111.53 62.65 112.79 65.14 112.79 65.16 114.04 65.3 114.04 67.67 114.04"/>
  <polygon class="cls-2" points="72.69 105.26 72.69 107.77 73.94 107.77 73.94 106.51 75.2 106.51 75.2 106.65 75.2 107.77 76.45 107.77 76.45 104 77.71 104 77.71 102.75 75.2 102.75 75.2 105.26 72.69 105.26"/>
  <polygon class="cls-2" points="61.39 116.55 62.65 116.55 62.65 117.81 61.39 117.81 61.39 119.06 63.9 119.06 63.9 116.55 65.16 116.55 65.16 115.3 62.65 115.3 62.65 114.04 62.51 114.04 60.14 114.04 60.14 115.3 61.39 115.3 61.39 116.55"/>
  <polygon class="cls-2" points="89.01 114.04 87.75 114.04 87.75 115.3 89.01 115.3 89.01 117.81 91.51 117.81 91.51 116.55 90.26 116.55 90.26 115.3 91.51 115.3 91.51 112.79 89.01 112.79 89.01 114.04"/>
  <polygon class="cls-2" points="89 124.08 91.51 124.08 91.51 121.57 90.26 121.57 90.26 120.32 89 120.32 89 124.08"/>
  <polygon class="cls-2" points="72.69 125.34 73.94 125.34 73.94 126.59 75.2 126.59 75.2 124.08 73.94 124.08 73.94 122.83 72.69 122.83 72.69 125.34"/>
  <polygon class="cls-2" points="63.9 110.28 63.9 109.02 60.14 109.02 60.14 111.53 61.39 111.53 61.39 110.28 63.9 110.28"/>
  <polygon class="cls-2" points="89 129.1 89.01 130.36 91.51 130.36 91.51 126.59 90.26 126.59 90.26 129.1 89 129.1"/>
  <rect class="cls-1" x="63.9" y="119.06" width="2.51" height="1.26"/>
  <rect class="cls-1" x="71.43" y="102.75" width="1.25" height="2.51"/>
  <rect class="cls-1" x="60.14" y="116.55" width="1.26" height="1.26"/>
  <rect class="cls-1" x="70.18" y="101.49" width="1.26" height="1.26"/>
  <rect class="cls-1" x="68.92" y="112.79" width="1.25" height="1.26"/>
  <polygon class="cls-2" points="86.49 116.55 86.49 115.3 85.24 115.3 85.24 116.55 86.49 116.55"/>
  <polygon class="cls-2" points="76.45 127.85 77.71 127.85 77.71 127.43 77.71 126.59 77.01 126.59 76.45 126.59 76.45 127.85"/>
  <rect class="cls-1" x="72.69" y="98.98" width="1.25" height="1.25"/>
  <rect class="cls-1" x="87.75" y="124.08" width="1.25" height="1.25"/>
  <polygon class="cls-2" points="86.5 112.79 87.75 112.79 87.75 111.53 87.19 111.53 86.5 111.53 86.5 112.79"/>
  <rect class="cls-1" x="73.94" y="107.77" width="1.25" height="1.25"/>
  <rect class="cls-1" x="90.26" y="119.06" width="1.25" height="1.25"/>
  <polygon class="cls-2" points="89 110.27 89 109.02 87.75 109.02 87.75 109.16 87.75 110.28 89 110.27"/>
  <polygon class="cls-2" points="89 120.32 89 119.06 87.75 119.06 87.75 119.2 87.75 120.32 89 120.32"/>
  <rect class="cls-1" x="73.94" y="101.49" width="1.25" height="1.25"/>
  <rect class="cls-1" x="65.16" y="116.55" width="1.25" height="1.25"/>
  <rect class="cls-1" x="60.14" y="119.06" width="1.25" height="1.25"/>
  <rect class="cls-1" x="67.67" y="114.04" width="1.25" height="1.25"/>
  <rect class="cls-1" x="86.5" y="116.55" width="1.25" height="1.25" transform="translate(-.13 .1) rotate(-.06)"/>
  <rect class="cls-1" x="67.67" y="116.55" width="1.25" height="1.25"/>
  <rect class="cls-1" x="82.73" y="121.57" width="1.25" height="1.25"/>
  <rect class="cls-1" x="89.01" y="110.28" width="1.25" height="1.25"/>
  <rect class="cls-1" x="77.71" y="106.51" width="1.25" height="1.25" transform="translate(-.15 .11) rotate(-.08)"/>
  <rect class="cls-1" x="73.94" y="117.81" width="1.25" height="1.25"/>
  <rect class="cls-1" x="75.2" y="129.1" width="1.25" height="1.25"/>
  <polygon class="cls-2" points="71.43 101.49 72.55 101.49 72.69 101.49 72.69 100.24 71.43 100.24 71.43 101.49"/>
</svg>