<?xml version="1.0" encoding="UTF-8"?>
<svg id="Layer_1" data-name="Layer 1" xmlns="http://www.w3.org/2000/svg" viewBox="0 0 255.12 173.46">
  <defs>
    <style>
      .cls-1 {
        isolation: isolate;
      }

      .cls-2 {
        font-family: HaboroContrast-ExtReg, 'Haboro Contrast';
      }

      .cls-3 {
        font-family: Georgia, Georgia;
      }

      .cls-4 {
        fill: #231f20;
        font-size: 23.65px;
      }
    </style>
  </defs>
  <path d="m132.12,9.08V.75h-9.36v8.33s-21.26,9.64-20.6,31.56c.66,21.94,20.6,24.28,20.6,24.28v7.3h9.36v-7.3s19.94-2.34,20.6-24.28c.66-21.91-20.6-31.56-20.6-31.56Zm-9.36,50.19s-12.3,1.34-12.3-21.29c.03-18.95,12.3-24.25,12.3-24.25v45.54Zm9.36,0V13.73s12.27,5.31,12.3,24.25c0,22.63-12.3,21.29-12.3,21.29Z"/>
  <g class="cls-1">
    <path d="m27.46,139.83C11.99,139.83-.12,129.77-.12,114.16s12.11-25.6,27.58-25.6,26.62,10.12,26.62,25.67-11.22,25.6-26.62,25.6Zm0-2.28c12.03,0,19.39-9.06,19.39-23.32s-7.36-23.39-19.39-23.39-20.27,9.41-20.27,23.24c0,14.55,8.24,23.46,20.27,23.46Z"/>
    <path d="m64.17,89.2h6.8v47.63l24.28-1.18v3.46h-31.08v-49.91Z"/>
    <path d="m104.56,89.2h6.8v49.91h-6.8v-49.91Z"/>
    <path d="m142.01,133.98l14.82-44.78h3.22l-16.68,49.91h-6.3l-16.26-49.91h7.02l14.18,44.78Z"/>
    <path d="m169.36,89.2h13.96c12.89,0,20.48,4.35,20.48,13.98,0,7.34-4.94,11.62-13.53,12.98l17.11,22.96h-7.81l-16.47-22.46h-6.95v22.46h-6.8v-49.91Zm6.8,2.28v22.82h6.45c9.6,0,14.11-3.64,14.11-10.98s-4.51-11.84-14.11-11.84h-6.45Z"/>
    <path d="m241.97,123.93h-23.27l-6.09,15.19h-3.08l20.27-49.91h5.51l19.69,49.91h-7.09l-5.94-15.19Zm-22.27-2.57h21.27l-10.46-26.88-10.81,26.88Z"/>
  </g>
  <text class="cls-4" transform="translate(-.12 163.35)"><tspan class="cls-2" x="0" y="0">BIJOU </tspan><tspan class="cls-3" x="73.63" y="0">&amp;</tspan><tspan class="cls-2" x="90.44" y="0" xml:space="preserve"> ACCESSORIES</tspan></text>
</svg>